<svg width="250" height="250" viewBox="0 0 250 250" fill="none" xmlns="http://www.w3.org/2000/svg">
<path d="M71.0525 104.827C71.0525 107.87 71.3814 110.337 71.9571 112.147C72.615 113.956 73.4373 115.929 74.5886 118.068C74.9998 118.725 75.1643 119.383 75.1643 119.959C75.1643 120.781 74.6709 121.604 73.6018 122.426L68.4209 125.88C67.6807 126.374 66.9406 126.62 66.2827 126.62C65.4603 126.62 64.638 126.209 63.8156 125.469C62.6643 124.235 61.6775 122.92 60.8551 121.604C60.0327 120.206 59.2104 118.643 58.3057 116.752C51.8913 124.318 43.8321 128.1 34.1281 128.1C27.2202 128.1 21.7103 126.127 17.6807 122.179C13.6511 118.232 11.5952 112.969 11.5952 106.39C11.5952 99.3998 14.0623 93.7255 19.0788 89.4492C24.0952 85.1729 30.7564 83.0347 39.2268 83.0347C42.0228 83.0347 44.9011 83.2814 47.9439 83.6926C50.9867 84.1038 54.1117 84.7617 57.4011 85.5018V79.4985C57.4011 73.2485 56.0853 68.89 53.536 66.3406C50.9044 63.7913 46.4636 62.5577 40.1314 62.5577C37.2531 62.5577 34.2926 62.8867 31.2498 63.6268C28.2071 64.3669 25.2465 65.2715 22.3682 66.4229C21.0525 66.9985 20.0656 67.3275 19.49 67.4919C18.9143 67.6564 18.5031 67.7386 18.1742 67.7386C17.0228 67.7386 16.4472 66.9163 16.4472 65.1893V61.1597C16.4472 59.8439 16.6117 58.8571 17.0228 58.2814C17.434 57.7057 18.1742 57.1301 19.3255 56.5544C22.2038 55.0742 25.6577 53.8406 29.6873 52.8538C33.7169 51.7847 37.9932 51.2913 42.5163 51.2913C52.3025 51.2913 59.4571 53.5117 64.0623 57.9525C68.5854 62.3932 70.888 69.1367 70.888 78.1827V104.827H71.0525ZM37.6643 117.327C40.3781 117.327 43.1742 116.834 46.1347 115.847C49.0952 114.86 51.7268 113.051 53.9472 110.584C55.263 109.022 56.2498 107.295 56.7432 105.321C57.2367 103.347 57.5656 100.962 57.5656 98.1663V94.7123C55.1807 94.1367 52.6314 93.6432 49.9998 93.3143C47.3682 92.9854 44.8189 92.8209 42.2696 92.8209C36.7597 92.8209 32.7301 93.89 30.0163 96.1104C27.3025 98.3307 25.9867 101.456 25.9867 105.568C25.9867 109.433 26.9735 112.311 29.0294 114.285C31.0031 116.341 33.8814 117.327 37.6643 117.327ZM103.7 126.209C102.22 126.209 101.233 125.962 100.575 125.387C99.9176 124.893 99.3419 123.742 98.8485 122.179L79.5228 58.6104C79.0294 56.9656 78.7827 55.8965 78.7827 55.3209C78.7827 54.0051 79.4406 53.265 80.7564 53.265H88.8156C90.3781 53.265 91.4472 53.5117 92.0229 54.0873C92.6807 54.5807 93.1742 55.7321 93.6676 57.2946L107.483 111.735L120.312 57.2946C120.724 55.6498 121.217 54.5807 121.875 54.0873C122.533 53.5939 123.684 53.265 125.164 53.265H131.743C133.306 53.265 134.375 53.5117 135.033 54.0873C135.691 54.5807 136.266 55.7321 136.595 57.2946L149.589 112.393L163.816 57.2946C164.309 55.6498 164.885 54.5807 165.46 54.0873C166.118 53.5939 167.187 53.265 168.668 53.265H176.316C177.631 53.265 178.372 53.9229 178.372 55.3209C178.372 55.7321 178.289 56.1432 178.207 56.6367C178.125 57.1301 177.96 57.788 177.631 58.6926L157.812 122.262C157.319 123.906 156.743 124.975 156.085 125.469C155.427 125.962 154.358 126.291 152.96 126.291H145.888C144.325 126.291 143.256 126.045 142.598 125.469C141.941 124.893 141.365 123.824 141.036 122.179L128.289 69.1367L115.625 122.097C115.214 123.742 114.72 124.811 114.062 125.387C113.404 125.962 112.253 126.209 110.773 126.209H103.7ZM209.375 128.429C205.099 128.429 200.822 127.936 196.71 126.949C192.599 125.962 189.391 124.893 187.253 123.66C185.937 122.92 185.033 122.097 184.704 121.357C184.375 120.617 184.21 119.795 184.21 119.054V114.86C184.21 113.133 184.868 112.311 186.102 112.311C186.595 112.311 187.089 112.393 187.582 112.558C188.075 112.722 188.816 113.051 189.638 113.38C192.434 114.614 195.477 115.6 198.684 116.258C201.974 116.916 205.181 117.245 208.47 117.245C213.651 117.245 217.681 116.341 220.477 114.531C223.273 112.722 224.753 110.091 224.753 106.719C224.753 104.416 224.013 102.525 222.533 100.962C221.052 99.3998 218.256 98.0018 214.227 96.686L202.302 92.9854C196.299 91.0939 191.858 88.2979 189.145 84.5972C186.431 80.9788 185.033 76.9492 185.033 72.6729C185.033 69.2189 185.773 66.1761 187.253 63.5446C188.733 60.913 190.707 58.6104 193.174 56.8011C195.641 54.9097 198.437 53.5117 201.727 52.5248C205.016 51.538 208.47 51.1268 212.089 51.1268C213.898 51.1268 215.789 51.209 217.599 51.4557C219.49 51.7025 221.217 52.0314 222.944 52.3604C224.589 52.7715 226.151 53.1827 227.631 53.6761C229.112 54.1696 230.263 54.663 231.085 55.1564C232.237 55.8143 233.059 56.4722 233.552 57.2123C234.046 57.8702 234.293 58.7748 234.293 59.9261V63.7913C234.293 65.5182 233.635 66.4229 232.401 66.4229C231.743 66.4229 230.674 66.0939 229.276 65.436C224.589 63.2979 219.325 62.2288 213.487 62.2288C208.799 62.2288 205.099 62.9689 202.549 64.5314C200 66.0939 198.684 68.4788 198.684 71.8505C198.684 74.1531 199.506 76.1268 201.151 77.6893C202.796 79.2518 205.839 80.8143 210.197 82.2123L221.875 85.913C227.796 87.8044 232.072 90.436 234.622 93.8077C237.171 97.1794 238.404 101.045 238.404 105.321C238.404 108.857 237.664 112.064 236.266 114.86C234.786 117.656 232.812 120.124 230.263 122.097C227.714 124.153 224.671 125.633 221.135 126.702C217.434 127.854 213.569 128.429 209.375 128.429Z" fill="white"/>
<path fill-rule="evenodd" clip-rule="evenodd" d="M224.918 168.397C197.862 188.38 158.553 198.989 124.753 198.989C77.3847 198.989 34.7038 181.472 2.46699 152.36C-0.0823513 150.058 2.22028 146.933 5.26304 148.742C40.1315 168.972 83.1413 181.225 127.631 181.225C157.648 181.225 190.625 174.975 220.97 162.147C225.493 160.091 229.358 165.107 224.918 168.397Z" fill="#FF9900"/>
<path fill-rule="evenodd" clip-rule="evenodd" d="M236.184 155.568C232.73 151.127 213.322 153.429 204.523 154.499C201.891 154.827 201.48 152.525 203.865 150.798C219.326 139.943 244.737 143.068 247.697 146.686C250.658 150.387 246.875 175.798 232.401 187.969C230.181 189.86 228.043 188.874 229.029 186.406C232.319 178.265 239.638 159.926 236.184 155.568Z" fill="#FF9900"/>
</svg>
