<svg width="250" height="250" viewBox="0 0 250 250" fill="none" xmlns="http://www.w3.org/2000/svg">
<g clip-path="url(#clip0_1_322)">
<path d="M83.4081 7.66083H157.548L80.5866 235.695C79.7955 238.038 78.2891 240.075 76.2796 241.518C74.2701 242.96 71.8587 243.736 69.385 243.736H11.6875C9.81344 243.736 7.96627 243.29 6.29882 242.435C4.63137 241.579 3.19159 240.339 2.0986 238.817C1.0056 237.294 0.290812 235.534 0.0133657 233.68C-0.26408 231.827 -0.0962059 229.934 0.503098 228.158L72.2066 15.7025C72.9975 13.3586 74.5039 11.3219 76.5134 9.87925C78.5229 8.4366 80.9344 7.6607 83.4081 7.66083Z" fill="url(#paint0_linear_1_322)"/>
<path d="M191.143 160.611H73.5761C72.4834 160.61 71.416 160.939 70.5127 161.554C69.6093 162.169 68.912 163.041 68.5114 164.058C68.1107 165.074 68.0254 166.188 68.2664 167.254C68.5074 168.32 69.0636 169.288 69.8626 170.034L145.409 240.542C147.608 242.594 150.504 243.736 153.512 243.736H220.08L191.143 160.611Z" fill="#0078D4"/>
<path d="M83.4081 7.66077C80.9077 7.65145 78.4698 8.44173 76.4503 9.9162C74.4309 11.3907 72.9356 13.4721 72.183 15.8566L0.591987 227.966C-0.0474052 229.748 -0.248155 231.658 0.00672189 233.534C0.261599 235.41 0.964603 237.197 2.05626 238.744C3.14792 240.291 4.59612 241.552 6.27835 242.421C7.96058 243.29 9.82734 243.741 11.7207 243.736H70.9077C73.1127 243.342 75.1736 242.37 76.8798 240.919C78.586 239.468 79.8763 237.589 80.6187 235.476L94.8924 193.405L145.889 240.967C148.026 242.735 150.706 243.713 153.48 243.736H219.801L190.712 160.611L105.916 160.63L157.817 7.66077H83.4081Z" fill="url(#paint1_linear_1_322)"/>
<path d="M178.103 15.6896C177.313 13.3496 175.809 11.3162 173.803 9.87592C171.797 8.4356 169.389 7.66087 166.92 7.66083H84.293C86.7628 7.6608 89.1705 8.43549 91.1769 9.87581C93.1833 11.3161 94.6874 13.3495 95.4774 15.6896L167.185 228.157C167.784 229.933 167.952 231.826 167.675 233.679C167.397 235.533 166.683 237.294 165.59 238.816C164.497 240.338 163.057 241.579 161.389 242.434C159.722 243.29 157.875 243.736 156.001 243.736H238.627C240.501 243.736 242.348 243.29 244.016 242.434C245.683 241.578 247.123 240.338 248.215 238.816C249.308 237.293 250.023 235.533 250.3 233.679C250.578 231.826 250.41 229.933 249.811 228.157L178.103 15.6896Z" fill="url(#paint2_linear_1_322)"/>
</g>
<defs>
<linearGradient id="paint0_linear_1_322" x1="110.431" y1="25.1544" x2="33.4353" y2="252.617" gradientUnits="userSpaceOnUse">
<stop stop-color="#114A8B"/>
<stop offset="1" stop-color="#0669BC"/>
</linearGradient>
<linearGradient id="paint1_linear_1_322" x1="134.483" y1="131.157" x2="116.671" y2="137.18" gradientUnits="userSpaceOnUse">
<stop stop-opacity="0.3"/>
<stop offset="0.071" stop-opacity="0.2"/>
<stop offset="0.321" stop-opacity="0.1"/>
<stop offset="0.623" stop-opacity="0.05"/>
<stop offset="1" stop-opacity="0"/>
</linearGradient>
<linearGradient id="paint2_linear_1_322" x1="124.688" y1="18.5187" x2="209.204" y2="243.691" gradientUnits="userSpaceOnUse">
<stop stop-color="#3CCBF4"/>
<stop offset="1" stop-color="#2892DF"/>
</linearGradient>
<clipPath id="clip0_1_322">
<rect width="250" height="234.649" fill="white" transform="translate(0 8)"/>
</clipPath>
</defs>
</svg>
