<svg width="250" height="250" viewBox="0 0 250 250" fill="none" xmlns="http://www.w3.org/2000/svg">
<path d="M219.39 51.0593L140.576 4.23729C135.915 1.48305 130.619 0 125.322 0C120.025 0 114.729 1.48305 110.068 4.23729L31.2542 51.0593C21.9322 56.5678 16 66.9491 16 78.178V171.822C16 183.051 21.7203 193.22 31.2542 198.941L110.068 245.763C114.729 248.517 120.025 250 125.322 250C130.619 250 135.915 248.517 140.576 245.763L219.39 198.941C228.712 193.432 234.644 183.051 234.644 171.822V77.9661C234.644 66.9491 228.924 56.5678 219.39 51.0593ZM112.822 240.678L34.0085 193.856C26.3814 189.195 21.5085 180.72 21.5085 171.61V77.9661C21.5085 68.8559 26.3814 60.1695 34.0085 55.7203L112.822 8.89831C116.636 6.5678 120.873 5.50847 125.322 5.50847C129.771 5.50847 134.008 6.77966 137.822 8.89831L216.636 55.7203C223.203 59.5339 227.441 66.3136 228.712 73.7288C226.169 68.2203 220.237 66.5254 213.246 70.5508L138.881 116.737C129.559 122.246 122.78 128.178 122.78 139.407V231.356C122.78 238.136 125.534 242.373 129.559 243.644C128.288 243.856 126.805 244.068 125.322 244.068C121.085 244.28 116.636 243.008 112.822 240.678Z" fill="white"/>
<path d="M198.839 180.72L179.136 192.373C178.712 192.585 178.288 193.008 178.288 193.644V198.729C178.288 199.364 178.712 199.576 179.136 199.364L199.051 187.288C199.475 187.076 199.686 186.441 199.686 185.805V181.356C199.686 180.72 199.263 180.508 198.839 180.72Z" fill="#4DA925"/>
<path d="M156.89 137.5C157.525 137.076 157.949 137.5 158.161 138.347V145.127C160.915 144.068 163.458 143.644 165.788 144.28C166.212 144.492 166.424 145.127 166.212 145.763L164.729 151.695C164.517 152.119 164.305 152.542 164.093 152.966C163.881 153.178 163.881 153.178 163.67 153.178C163.458 153.178 163.246 153.39 163.034 153.178C161.975 152.966 159.644 152.33 155.831 154.449C151.805 156.568 150.322 159.958 150.534 162.5C150.534 165.678 152.229 166.525 157.525 166.525C164.729 166.737 167.907 169.915 168.119 177.119C168.119 184.322 164.305 192.161 158.373 196.822L158.585 203.602C158.585 204.449 158.161 205.297 157.525 205.72L153.5 208.051C152.864 208.475 152.441 208.051 152.229 207.203V200.636C148.839 202.119 145.449 202.331 143.119 201.483C142.695 201.271 142.483 200.636 142.695 200L144.178 193.856C144.39 193.432 144.602 192.797 144.814 192.585C145.025 192.373 145.025 192.373 145.237 192.373C145.449 192.161 145.661 192.161 145.873 192.373C148.203 193.22 151.381 192.797 154.136 191.314C157.949 189.407 160.28 185.593 160.28 181.78C160.28 178.39 158.373 176.907 153.924 176.907C148.203 176.907 142.907 175.847 142.695 167.373C142.695 160.381 146.297 153.178 152.017 148.729V141.949C152.017 141.102 152.441 140.254 153.076 139.83L156.89 137.5Z" fill="#2A3238"/>
</svg>
