<svg width="250" height="250" viewBox="0 0 250 250" fill="none" xmlns="http://www.w3.org/2000/svg">
<g clip-path="url(#clip0_1_346)">
<path fill-rule="evenodd" clip-rule="evenodd" d="M118.565 1.70405C122.607 -0.563805 127.583 -0.563805 131.619 1.70405C151.589 12.9124 211.684 46.6505 231.661 57.8588C235.702 60.1207 238.19 64.3112 238.19 68.8469C238.19 91.2635 238.19 158.734 238.19 181.15C238.19 185.686 235.702 189.877 231.661 192.144C211.69 203.353 151.595 237.091 131.619 248.299C127.577 250.567 122.601 250.567 118.565 248.299C98.5952 237.091 38.5 203.353 18.5238 192.144C14.4881 189.877 12 185.692 12 181.156C12 158.74 12 91.2695 12 68.8528C12 64.3171 14.4881 60.1266 18.5298 57.8588C38.494 46.6505 98.6011 12.9124 118.565 1.70405Z" fill="#004482"/>
<path fill-rule="evenodd" clip-rule="evenodd" d="M13.8095 186.93C12.2262 184.811 12 182.799 12 180.091C12 157.805 12 90.7219 12 68.4302C12 63.9183 14.4821 59.7516 18.5119 57.5016C38.4107 46.3588 98.3035 12.8171 118.202 1.66834C122.232 -0.587609 127.69 -0.53999 131.72 1.71596C151.619 12.8588 211.309 46.1147 231.208 57.2576C232.815 58.1624 234.041 59.2516 235.137 60.6862L13.8095 186.93Z" fill="#659AD2"/>
<path fill-rule="evenodd" clip-rule="evenodd" d="M125.095 41.6683C171.089 41.6683 208.429 79.0076 208.429 125.002C208.429 170.996 171.089 208.335 125.095 208.335C79.1012 208.335 41.762 170.996 41.762 125.002C41.762 79.0076 79.1012 41.6683 125.095 41.6683ZM125.095 83.3349C148.089 83.3349 166.762 102.002 166.762 125.002C166.762 147.996 148.089 166.668 125.095 166.668C102.101 166.668 83.4286 147.996 83.4286 125.002C83.4286 102.002 102.095 83.3349 125.095 83.3349Z" fill="white"/>
<path fill-rule="evenodd" clip-rule="evenodd" d="M235.125 60.7457C238.196 63.6207 238.137 67.954 238.137 71.3647C238.137 93.954 237.946 158.204 238.19 180.793C238.214 183.15 237.434 185.633 236.268 187.502L122.673 125.002L235.125 60.7457Z" fill="#00599C"/>
</g>
<defs>
<clipPath id="clip0_1_346">
<rect width="226.191" height="250" fill="white" transform="translate(12)"/>
</clipPath>
</defs>
</svg>
