<svg width="250" height="250" viewBox="0 0 250 250" fill="none" xmlns="http://www.w3.org/2000/svg">
<g clip-path="url(#clip0_1_104)">
<path d="M171.901 136.216C167.555 136.229 163.221 135.755 158.98 134.802C161.453 140.16 163.343 145.768 164.619 151.532C166.968 151.532 169.395 151.532 171.901 151.532C179.887 151.519 187.819 150.22 195.393 147.683L188.111 133.467C182.859 135.124 177.404 136.049 171.901 136.216Z" fill="white"/>
<path d="M131.416 120.979L128.597 117.994C122.483 111.999 117.768 104.721 114.79 96.6816C111.811 88.6427 110.643 80.0423 111.37 71.4972C112.169 60.0516 116.37 49.1088 123.429 40.0803L122.803 51.3119C122.795 53.278 123.522 55.1757 124.842 56.6299C126.161 58.0841 127.976 58.9891 129.929 59.1661H130.633C132.594 59.1741 134.486 58.4443 135.936 57.1209C137.385 55.7976 138.288 53.977 138.464 52.0187L141.127 19.895C141.22 18.7574 141.066 17.6129 140.674 16.5413C140.281 15.4697 139.661 14.4968 138.856 13.6902C137.998 12.9937 137.004 12.4868 135.938 12.2025C134.872 11.9183 133.758 11.8632 132.669 12.0408L100.642 14.7897C98.5648 14.9668 96.6431 15.9641 95.2994 17.5623C93.9557 19.1604 93.3 21.2285 93.4765 23.3116C93.653 25.3946 94.6474 27.3221 96.2407 28.6698C97.8341 30.0176 99.896 30.6752 101.973 30.4982L112.075 29.6342C102.562 41.5726 96.956 56.165 96.0215 71.4187C95.2123 81.8723 96.6613 92.378 100.27 102.219C103.878 112.059 109.56 121.003 116.93 128.44L119.357 131.346C129.364 141.718 135.121 155.482 135.488 169.911C135.906 176.446 135.217 183.005 133.452 189.31L147.548 196.458C150.58 187.604 151.779 178.224 151.072 168.889C150.591 151.044 143.597 133.996 131.416 120.979Z" fill="white"/>
<path d="M241.36 121.293L231.885 122C240.531 110.776 245.864 97.3437 247.276 83.2308C248.689 69.1179 246.125 54.8906 239.876 42.1668C233.627 29.4429 223.943 18.7332 211.927 11.2554C199.91 3.77755 186.043 -0.168239 171.901 -0.133315C163.914 -0.147157 155.978 1.15295 148.409 3.71525L155.535 17.8528C164.475 15.3134 173.88 14.8889 183.011 16.6128C192.143 18.3366 200.75 22.1618 208.158 27.7874C215.566 33.413 221.571 40.6857 225.701 49.0334C229.832 57.3811 231.976 66.5762 231.963 75.8955C231.961 89.3629 227.406 102.432 219.042 112.967L219.826 100.872C219.892 99.8405 219.756 98.8059 219.424 97.8274C219.092 96.8488 218.572 95.9453 217.892 95.1686C217.212 94.3919 216.386 93.7571 215.462 93.3004C214.537 92.8438 213.532 92.5742 212.504 92.5072C211.475 92.4401 210.444 92.5769 209.468 92.9097C208.493 93.2424 207.592 93.7647 206.818 94.4466C206.043 95.1285 205.41 95.9568 204.955 96.884C204.5 97.8113 204.231 98.8194 204.164 99.8509L201.971 131.896C201.909 133.033 202.094 134.169 202.513 135.227C202.933 136.285 203.576 137.239 204.399 138.022C205.103 138.739 205.945 139.303 206.874 139.681C207.803 140.06 208.8 140.243 209.802 140.222H210.585L242.535 136.923C243.565 136.825 244.566 136.523 245.479 136.034C246.392 135.546 247.2 134.881 247.855 134.077C248.51 133.274 249.001 132.348 249.297 131.354C249.594 130.359 249.69 129.315 249.582 128.283C249.365 126.284 248.391 124.444 246.861 123.143C245.331 121.843 243.362 121.18 241.36 121.293Z" fill="white"/>
<path d="M19.5155 141.164H20.142L52.1697 138.415C53.198 138.327 54.1991 138.037 55.1157 137.562C56.0323 137.086 56.8466 136.434 57.5119 135.643C58.1773 134.851 58.6807 133.936 58.9935 132.95C59.3062 131.963 59.4222 130.925 59.3348 129.893C59.2474 128.862 58.9583 127.858 58.484 126.938C58.0097 126.019 57.3596 125.202 56.5706 124.535C55.7816 123.868 54.8694 123.363 53.8858 123.049C52.9023 122.735 51.8668 122.619 50.8385 122.707L39.9537 123.649C50.2063 116.063 62.6081 111.962 75.3487 111.946C79.6408 111.972 83.9185 112.446 88.1128 113.36C85.6532 108.005 83.7887 102.395 82.553 96.6306C80.2038 96.6306 77.7762 96.6306 75.3487 96.6306C58.6413 96.6056 42.3956 102.129 29.1473 112.339L30.087 102.05C30.1726 101.018 30.0539 99.979 29.7377 98.9932C29.4214 98.0073 28.9139 97.0938 28.2443 96.3054C27.5748 95.5171 26.7563 94.8693 25.8362 94.3994C24.916 93.9295 23.9123 93.6468 22.8827 93.5675C20.8169 93.3933 18.7665 94.0479 17.1812 95.3878C15.5958 96.7276 14.6048 98.6433 14.4255 100.715L11.6848 132.76C11.5981 133.843 11.7364 134.932 12.091 135.959C12.4455 136.986 13.0085 137.927 13.7445 138.725C14.4805 139.522 15.3734 140.157 16.3667 140.591C17.3601 141.024 18.4323 141.246 19.5155 141.243V141.164Z" fill="white"/>
<path d="M131.886 202.348L99.8585 204.469C97.7816 204.604 95.8435 205.562 94.4704 207.13C93.0973 208.699 92.4018 210.751 92.5368 212.834C92.6717 214.917 93.6262 216.861 95.1902 218.238C96.7542 219.615 98.7996 220.313 100.876 220.177L112.936 219.313C104.067 226.463 93.3652 230.953 82.063 232.266C70.7607 233.58 59.3185 231.664 49.0549 226.738C38.7914 221.813 30.1244 214.078 24.0529 204.427C17.9814 194.776 14.7525 183.6 14.7383 172.188C14.7947 166.874 15.5585 161.591 17.0092 156.48L3.30545 149.175C0.879523 156.658 -0.362356 164.477 -0.375 172.345C-0.283123 186.569 3.77717 200.484 11.3462 212.513C18.9152 224.542 29.6907 234.206 42.4527 240.41C55.2147 246.613 69.4534 249.11 83.557 247.616C97.6605 246.123 111.066 240.699 122.254 231.959L121.315 241.227C121.206 242.253 121.3 243.291 121.592 244.281C121.884 245.27 122.367 246.193 123.014 246.995C123.661 247.798 124.46 248.464 125.364 248.957C126.268 249.45 127.261 249.759 128.284 249.866H129.145C131.093 249.876 132.975 249.157 134.423 247.85C135.871 246.543 136.781 244.742 136.976 242.798L140.265 210.909C140.381 209.773 140.249 208.625 139.878 207.545C139.506 206.465 138.904 205.48 138.114 204.657C137.324 203.835 136.364 203.195 135.302 202.783C134.24 202.37 133.101 202.195 131.965 202.27L131.886 202.348Z" fill="white"/>
</g>
<defs>
<clipPath id="clip0_1_104">
<rect width="250" height="250" fill="white"/>
</clipPath>
</defs>
</svg>
