<svg width="250" height="250" viewBox="0 0 250 250" fill="none" xmlns="http://www.w3.org/2000/svg">
<path d="M241.005 182.47H233.147V166.858C233.147 161.74 230.252 158.018 226.22 158.018H198.77V139.201H206.627C211.538 139.201 215.519 135.22 215.519 130.309V114.8C215.519 109.889 211.538 105.909 206.627 105.909H198.77V90.2448C198.77 85.3854 194.789 81.4049 189.93 81.4049H129.859V67.292H137.821C142.732 67.292 146.712 63.3114 146.712 58.4003V42.8916C146.712 37.9806 142.732 34 137.821 34H112.024C107.113 34 103.133 37.9806 103.133 42.8916V58.4003C103.133 63.3114 107.113 67.292 112.024 67.292H119.83V81.4049H60.0186C55.1592 81.4049 51.1787 85.3854 51.1787 90.2448V105.857H43.2692C38.3581 105.857 34.3776 109.837 34.3776 114.749V130.257C34.3776 135.168 38.3581 139.149 43.2692 139.149H51.127V157.966H23.7283C19.696 157.966 16.8011 161.688 16.8011 166.806V182.418H8.89165C3.98056 182.418 0 186.399 0 191.31V206.818C0 211.73 3.98056 215.71 8.89165 215.71H34.6878C39.5988 215.71 43.5794 211.73 43.5794 206.818V191.31C43.5794 186.399 39.5988 182.418 34.6878 182.418H26.83V167.995H85.5562V182.418H77.6985C72.7874 182.418 68.8069 186.399 68.8069 191.31V206.818C68.8069 211.73 72.7874 215.71 77.6985 215.71H103.495C108.406 215.71 112.386 211.73 112.386 206.818V191.31C112.386 186.399 108.406 182.418 103.495 182.418H95.6369V166.806C95.6369 161.688 92.7419 157.966 88.7097 157.966H61.2593V139.149H69.117C74.0281 139.149 78.0087 135.168 78.0087 130.257V114.749C78.0087 109.837 74.0281 105.857 69.117 105.857H61.2593V91.4338H119.882V105.857H112.076C107.165 105.857 103.184 109.837 103.184 114.749V130.257C103.184 135.168 107.165 139.149 112.076 139.149H137.872C142.783 139.149 146.764 135.168 146.764 130.257V114.749C146.764 109.837 142.783 105.857 137.872 105.857H129.911V91.4338H188.741V105.857H180.883C175.972 105.857 171.991 109.837 171.991 114.749V130.257C171.991 135.168 175.972 139.149 180.883 139.149H188.741V157.966H161.29C157.258 157.966 154.363 161.688 154.363 166.806V182.418H146.505C141.594 182.418 137.614 186.399 137.614 191.31V206.818C137.614 211.73 141.594 215.71 146.505 215.71H172.301C177.213 215.71 181.193 211.73 181.193 206.818V191.31C181.193 186.399 177.213 182.418 172.301 182.418H164.444V167.995H223.17V182.418H215.312C210.401 182.418 206.421 186.399 206.421 191.31V206.818C206.421 211.73 210.401 215.71 215.312 215.71H241.108C246.019 215.71 250 211.73 250 206.818V191.31C249.845 186.45 245.916 182.47 241.005 182.47Z" fill="white"/>
</svg>
