<svg width="250" height="250" viewBox="0 0 250 250" fill="none" xmlns="http://www.w3.org/2000/svg">
<path d="M245.933 108.724C239.804 104.598 223.7 102.838 211.992 105.99C211.362 94.3271 205.347 84.4973 194.343 75.9268L190.273 73.1934L187.558 77.2935C182.225 85.3899 179.977 96.1827 180.769 105.994C181.399 112.039 183.499 118.831 187.558 123.761C172.317 132.602 158.273 130.594 96.064 130.594H0.0216223C-0.259864 144.643 1.99943 171.662 19.1812 193.658C21.0775 196.088 23.1591 198.44 25.4184 200.703C39.389 214.692 60.4967 224.952 92.0602 224.978C140.209 225.022 181.465 198.992 206.562 136.061C214.822 136.198 236.618 137.539 247.285 116.927C247.544 116.579 250 111.461 250 111.461L245.933 108.727V108.724ZM62.7005 94.2271H35.6926V121.235H62.7005V94.2271ZM97.5937 94.2271H70.5858V121.235H97.5937V94.2271ZM132.487 94.2271H105.479V121.235H132.487V94.2271ZM167.38 94.2271H140.372V121.235H167.38V94.2271ZM27.8147 94.2271H0.799414V121.235H27.8073V94.2271H27.8147ZM62.7079 60.1117H35.7V87.1196H62.7079V60.1117ZM97.6011 60.1117H70.5932V87.1196H97.6011V60.1117ZM132.494 60.1117H105.486V87.1196H132.494V60.1117ZM132.483 26H105.475V53.0079H132.483V26Z" fill="#1D63ED"/>
</svg>
