<svg width="250" height="251" viewBox="0 0 250 251" fill="none" xmlns="http://www.w3.org/2000/svg">
<g clip-path="url(#clip0_1_337)">
<path d="M83.6833 250.147C106.683 250.147 125.35 231.481 125.35 208.481V166.814H83.6833C60.6833 166.814 42.0166 185.481 42.0166 208.481C42.0166 231.481 60.6833 250.147 83.6833 250.147Z" fill="#0ACF83"/>
<path d="M42.0166 125.147C42.0166 102.147 60.6833 83.4806 83.6833 83.4806H125.35V166.814H83.6833C60.6833 166.814 42.0166 148.147 42.0166 125.147Z" fill="#A259FF"/>
<path d="M42.0166 41.8139C42.0166 18.8139 60.6833 0.147217 83.6833 0.147217H125.35V83.4806H83.6833C60.6833 83.4806 42.0166 64.8139 42.0166 41.8139Z" fill="#F24E1E"/>
<path d="M125.35 0.147217H167.017C190.017 0.147217 208.683 18.8139 208.683 41.8139C208.683 64.8139 190.017 83.4806 167.017 83.4806H125.35V0.147217Z" fill="#FF7262"/>
<path d="M208.683 125.147C208.683 148.147 190.017 166.814 167.017 166.814C144.017 166.814 125.35 148.147 125.35 125.147C125.35 102.147 144.017 83.4806 167.017 83.4806C190.017 83.4806 208.683 102.147 208.683 125.147Z" fill="#1ABCFE"/>
</g>
<defs>
<clipPath id="clip0_1_337">
<rect width="166.7" height="250" fill="white" transform="translate(42 0.147217)"/>
</clipPath>
</defs>
</svg>
