<svg width="251" height="250" viewBox="0 0 251 250" fill="none" xmlns="http://www.w3.org/2000/svg">
<path d="M189.729 48.7399C195.602 53.0538 200.137 58.693 204.399 64.5271C210.895 73.3756 215.781 83.3027 218.808 93.8534C219.328 95.5036 220.381 96.9459 221.823 97.9074C239.819 111.94 249.33 130.443 250.084 153.221C251.162 187.043 225.175 218.344 191.769 223.815C186.935 224.594 182.05 224.984 177.151 224.984H129.231C127.841 224.984 126.45 224.828 125.06 224.737V181.482C126.684 181.482 128.296 181.365 129.946 181.365C146.746 181.365 163.547 181.534 180.335 181.235C194.563 181.092 206.14 169.71 206.517 155.482C207.283 141.163 196.654 128.78 182.388 127.351C180.075 127.091 179.503 126.428 179.542 124.245C179.828 106.132 173.123 91.1118 159.285 79.3267L189.729 48.7399Z" fill="#4385F3"/>
<path d="M28.2455 210.535C13.3679 199.582 4.16847 184.873 1.24493 166.799C-3.40675 138.122 6.39036 114.864 29.3239 97.1018C29.8696 96.686 30.4024 96.1793 30.8831 95.7245L31.234 95.0228C32.7542 95.1138 33.8327 94.0873 35.0021 93.3986C50.6333 84.2382 67.3949 81.8214 85.0531 85.1218C100.684 88.4481 114.756 96.9199 125.008 109.186C126.697 111.174 126.541 112.226 124.748 113.98C115.913 122.621 107.129 131.314 98.5534 140.201C96.0976 142.735 95.253 142.696 93.343 139.604C85.274 127.065 68.5643 123.453 56.0256 131.522C48.6193 136.29 44.0066 144.385 43.6688 153.182C43.266 165.162 49.0741 173.53 59.313 179.091C58.4554 180.013 57.5978 180.962 56.7013 181.859C47.216 191.461 37.7307 201.024 28.2455 210.548V210.535Z" fill="#FABB06"/>
<path d="M85.0012 85.1478C67.317 81.9124 50.5813 84.2772 34.9501 93.4246C33.7807 94.1133 32.7022 95.1528 31.182 95.0488C32.6243 87.9803 35.3009 81.2107 39.0821 75.0778C58.7153 41.3336 88.1326 23.9223 127.204 24.0003C149.202 24.0003 168.887 31.7314 186.143 45.4396C187.403 46.4401 188.534 47.5965 189.716 48.7399L159.22 79.3267L155.192 76.572C133.103 61.6295 102.127 65.3976 84.9882 85.1218L85.0012 85.1478Z" fill="#E94436"/>
<path d="M28.2455 210.535C37.7178 200.998 47.19 191.487 56.6623 181.988C57.5589 181.092 58.4164 180.156 59.274 179.221C64.4584 181.274 69.8637 181.586 75.373 181.56C91.9137 181.495 108.441 181.56 124.995 181.56V224.815C124.67 224.932 124.333 225.01 123.982 225.049C103.634 224.854 83.2471 225.946 62.9382 224.503C50.2045 223.555 38.0816 218.669 28.2455 210.535Z" fill="#35A854"/>
</svg>
