<svg width="250" height="250" viewBox="0 0 250 250" fill="none" xmlns="http://www.w3.org/2000/svg">
<rect width="250" height="250" fill="#3880FF"/>
<path d="M124.5 83.333C101.267 83.333 82.333 102.23 82.333 125.5C82.333 148.733 101.23 167.667 124.5 167.667C147.77 167.667 166.667 148.733 166.667 125.5C166.667 102.267 147.733 83.333 124.5 83.333Z" fill="white"/>
<path d="M185.022 87.0908C195.639 87.0908 204.245 78.4845 204.245 67.8682C204.245 57.2518 195.639 48.6455 185.022 48.6455C174.406 48.6455 165.8 57.2518 165.8 67.8682C165.8 78.4845 174.406 87.0908 185.022 87.0908Z" fill="white"/>
<path d="M208.689 87.1631L207.895 85.3926L206.594 86.8379C203.45 90.415 199.439 93.1611 194.995 94.8232L193.767 95.293L194.272 96.4854C198.103 105.699 200.054 115.455 200.054 125.464C200.054 167.125 166.161 201.054 124.464 201.054C82.7666 201.054 48.9102 167.161 48.9102 125.5C48.9102 83.8389 82.8389 49.9102 124.5 49.9102C135.81 49.9102 146.722 52.3672 156.875 57.209L158.067 57.7871L158.573 56.5947C160.416 52.2588 163.379 48.3926 167.101 45.3936L168.618 44.165L166.884 43.2617C153.695 36.4688 139.423 33 124.5 33C73.4805 33 32 74.4805 32 125.5C32 176.52 73.4805 218 124.5 218C175.52 218 217 176.52 217 125.5C217 112.167 214.218 99.2676 208.689 87.1631Z" fill="white"/>
</svg>
