<svg width="250" height="250" viewBox="0 0 250 250" fill="none" xmlns="http://www.w3.org/2000/svg">
<g clip-path="url(#clip0_1_272)">
<path d="M120.738 40.1752C120.738 35.2198 120.666 30.2643 120.738 25.3806C120.81 24.0161 120.379 22.7234 119.589 21.6461C110.109 8.00058 91.2928 4.62511 77.5754 14.1051C69.5318 19.707 64.7199 28.8279 64.6481 38.5234C64.5045 43.9098 67.7363 48.7216 72.6918 50.8044C79.2991 53.4616 86.84 50.3016 89.4973 43.6943C90.8618 40.3907 90.79 36.6561 89.21 33.3525C88.8509 32.6343 88.4918 31.9161 88.2764 31.1261C87.8455 28.8279 88.7073 27.1043 90.9337 26.1706C93.0164 25.3088 95.0273 26.2425 96.32 28.4688C101.491 37.1589 98.9773 49.368 90.6464 55.8317C81.3818 63.1571 67.88 61.5053 60.5545 52.2407C58.3999 49.5116 56.9635 46.2798 56.3172 42.8325C55.8863 40.3907 54.7372 39.6725 52.5826 39.3852C32.9762 36.3689 16.3143 51.0198 17.0325 70.5544C17.6789 86.3545 31.3962 99.4973 47.2681 99.1382C52.7981 99.0664 56.8199 96.2654 59.0463 91.1663C61.2008 86.3545 60.0517 80.6808 56.1735 77.0899C52.1517 73.2835 47.4835 72.3499 42.2408 74.3608C38.2189 75.9408 35.7053 75.4381 34.7716 72.709C33.7662 69.9081 35.1307 67.8253 39.2244 66.2453C47.2681 63.0135 56.4608 64.9526 62.5654 71.2008C68.6699 77.3772 70.4654 86.6418 67.0181 94.6136C63.2836 103.016 56.6044 107.613 47.4117 107.756C36.3516 107.972 26.9434 103.806 19.2589 95.8345C17.8943 94.47 17.1761 94.6136 15.8834 95.6909C9.20428 101.508 6.69064 110.773 9.56338 119.176C12.5079 127.578 20.2643 133.252 29.098 133.539C37.7162 133.683 46.3344 133.611 54.9526 133.539C56.8199 133.539 58.3281 133.97 59.3335 135.55C61.129 138.279 59.3335 142.086 55.9581 142.086C45.6162 142.086 35.2744 143.091 25.0761 141.583C12.6516 139.716 4.39244 132.175 0.945156 120.253C-2.57395 108.044 0.87334 97.3427 10.497 89.0118C12.3643 87.36 12.4361 86.4263 11.5743 84.2718C5.75699 70.1235 7.337 56.6935 16.8888 44.8434C26.5125 32.8498 39.368 28.397 54.5217 30.9107C56.1735 31.1979 56.5326 30.9107 56.9635 29.3307C61.0572 14.7515 70.3218 5.05602 84.9727 1.32146C99.6237 -2.4131 112.479 1.60874 122.965 12.5251C124.257 13.8179 124.76 14.3206 126.34 12.6688C136.826 1.60874 149.753 -2.48492 164.548 1.32146C179.055 5.05602 188.319 14.7515 192.413 29.187C192.844 30.8388 193.131 31.2698 194.999 30.9107C219.704 26.3861 241.609 45.2743 241.034 70.4108C240.962 75.3663 239.813 80.2499 237.659 84.7027C236.725 86.6418 236.941 87.5036 238.521 88.7963C255.901 103.016 252.238 130.307 231.841 139.572C227.963 141.296 223.798 142.229 219.632 142.229C211.301 142.229 202.97 142.229 194.568 142.229C191.264 142.229 189.253 140.506 189.325 137.777C189.397 135.191 191.336 133.611 194.496 133.611C202.97 133.611 211.373 133.683 219.776 133.611C228.681 133.467 236.51 127.937 239.598 119.606C242.686 111.276 240.388 101.939 233.781 95.9782C232.201 94.5418 231.411 94.47 229.831 96.1218C220.997 104.884 210.368 109.336 197.871 107.254C189.109 105.817 183.508 100 181.353 91.4536C179.199 82.6199 181.784 75.0072 188.966 69.4053C195.932 63.9471 203.689 63.3008 211.732 66.9635C214.533 68.2562 215.539 70.7699 214.461 73.0681C213.456 75.1508 210.942 76.0845 208.788 75.079C208.716 75.0072 208.572 75.0072 208.5 74.9354C203.258 72.1344 196.794 73.2117 192.7 77.5926C189.038 81.5427 188.248 87.2881 190.689 92.1C193.275 97.2709 198.59 99.8564 205.125 99.1382C219.848 97.4146 231.339 85.78 232.272 71.3444C233.421 54.6826 220.853 40.1752 204.191 39.0261C201.606 38.8107 199.02 39.0261 196.435 39.4571C194.496 39.8162 193.49 40.4625 193.131 42.6889C191.408 53.0307 182.43 60.5717 171.945 60.428C156.217 60.3562 145.875 43.838 152.626 29.6179C154.206 26.3143 156.432 25.237 158.946 26.3861C161.531 27.607 162.034 29.8334 160.454 33.2807C158.156 38.4516 158.946 43.838 162.68 47.7162C166.343 51.6662 172.088 52.8871 176.972 50.7326C181.928 48.7216 185.088 43.7662 184.944 38.4516C184.872 32.8498 183.22 27.3916 180.204 22.7234C168.857 4.84057 142.93 3.97874 130.434 21.0715C129.428 22.4361 128.854 24.0879 128.926 25.7397C128.997 35.5789 128.926 45.4898 128.997 55.3289C128.997 57.268 128.423 58.848 126.699 59.8535C125.335 60.6435 123.683 60.5717 122.39 59.638C120.882 58.7044 120.379 57.1962 120.379 55.4726C120.738 50.4453 120.738 45.2744 120.738 40.1752Z" fill="white"/>
<path d="M103.502 79.2445C103.502 77.3772 103.43 75.4381 103.502 73.5708C103.574 70.8417 105.369 69.0462 107.811 69.0462C110.253 69.0462 112.048 70.9135 112.048 73.6426C112.12 77.2335 112.12 80.8245 112.048 84.4154C111.976 85.9954 112.479 86.2827 113.987 86.3545C120.666 86.4263 120.666 86.4981 120.666 79.819C120.666 77.6645 120.595 75.5099 120.666 73.3554C120.666 70.9853 122.606 69.1181 124.976 69.1181C127.346 69.1181 129.213 71.0572 129.213 73.4272C129.285 77.1617 129.285 80.9681 129.213 84.7027C129.213 85.9954 129.572 86.2827 130.865 86.3545C137.903 86.6418 137.831 86.6418 137.903 79.6036C137.903 77.5208 137.831 75.4381 137.903 73.4272C137.903 71.0572 139.842 69.1181 142.14 69.1181C144.51 69.1181 146.449 71.0572 146.449 73.3554C146.521 77.0899 146.521 80.8963 146.449 84.6308C146.449 85.8518 146.737 86.3545 148.101 86.2827C149.681 86.139 151.333 86.2109 152.913 86.4263C159.52 87.5754 163.829 92.89 163.686 100.072C163.614 102.873 164.26 103.806 167.133 103.519C170.149 103.304 173.238 103.304 176.254 103.447C179.127 103.519 180.994 105.315 180.994 107.828C180.922 110.27 179.127 111.994 176.326 111.994C172.735 112.065 169.144 112.065 165.553 111.994C164.188 111.994 163.758 112.281 163.686 113.717C163.542 120.612 163.47 120.612 170.293 120.612C172.16 120.612 174.028 120.612 175.967 120.612C179.127 120.684 180.994 122.336 180.994 124.993C180.922 127.506 179.055 129.158 176.11 129.23C172.591 129.302 169.072 129.302 165.625 129.23C164.332 129.23 163.829 129.446 163.758 130.954C163.614 137.848 163.542 137.848 170.365 137.848C172.16 137.848 173.956 137.848 175.751 137.848C179.127 137.848 181.066 139.5 181.066 142.229C180.994 144.887 179.055 146.467 175.679 146.467C172.448 146.467 169.216 146.61 165.984 146.395C164.117 146.323 163.686 146.969 163.829 148.621C164.045 150.704 163.829 152.787 163.255 154.726C161.459 160.112 156.432 163.703 150.758 163.631C146.665 163.703 146.665 163.703 146.665 167.868C146.665 170.669 146.737 173.47 146.665 176.199C146.593 178.928 144.869 180.796 142.427 180.868C139.914 180.939 138.118 179.072 138.047 176.128C137.975 172.608 137.975 169.089 138.047 165.642C138.047 164.277 137.903 163.631 136.251 163.631C129.428 163.559 129.428 163.487 129.428 170.31C129.428 172.393 129.5 174.476 129.428 176.487C129.285 179.072 127.561 180.796 125.263 180.868C122.821 180.939 120.954 179.144 120.882 176.415C120.81 172.752 120.81 169.018 120.882 165.355C120.954 163.918 120.451 163.631 119.086 163.559C112.264 163.416 112.264 163.344 112.264 170.238C112.264 172.321 112.336 174.404 112.264 176.415C112.12 179.072 110.253 180.939 107.811 180.796C105.441 180.724 103.574 178.785 103.646 176.415C103.646 176.415 103.646 176.415 103.646 176.343C103.574 172.68 103.574 169.018 103.646 165.283C103.646 163.918 103.286 163.416 101.85 163.487C99.4082 163.703 96.9664 163.488 94.6682 162.626C89.21 160.471 86.1936 155.875 86.4091 149.196C86.4809 146.754 85.8345 145.964 83.3927 146.179C80.2327 146.395 77.1445 146.251 73.9845 146.251C71.0399 146.179 69.1727 144.527 69.1727 141.942C69.1727 139.356 71.0399 137.633 73.9845 137.633C77.5754 137.561 81.1663 137.561 84.7572 137.633C85.9782 137.633 86.4091 137.346 86.4809 136.053C86.7682 129.015 86.84 129.015 79.73 129.015C77.8627 129.015 75.9236 129.015 74.0563 129.015C71.1117 128.943 69.2445 127.291 69.1727 124.777C69.1008 122.264 71.0399 120.468 73.9127 120.468C77.4318 120.396 80.9509 120.396 84.3982 120.468C85.8345 120.54 86.4091 120.253 86.4091 118.601C86.4809 111.778 86.5527 111.778 79.6581 111.778C77.6472 111.778 75.7081 111.85 73.769 111.778C70.9681 111.706 69.1727 109.983 69.1727 107.541C69.1008 105.027 70.9681 103.232 73.9127 103.16C77.4318 103.088 80.9509 103.016 84.3982 103.16C86.1218 103.232 86.5527 102.657 86.4091 101.077C86.1936 98.2763 86.4091 95.5473 87.8454 92.9618C90.4309 88.2218 94.5246 85.9236 99.9109 85.8518C103.645 85.8518 103.646 85.8518 103.646 82.0454C103.502 81.3272 103.502 80.3217 103.502 79.2445ZM125.335 94.9009C117.004 94.9009 108.673 94.9009 100.342 94.9009C96.4637 94.9009 94.9555 96.4091 94.9555 100.215C94.9555 116.806 94.9555 133.396 94.9555 149.986C94.9555 153.648 96.5355 155.157 100.198 155.157C116.788 155.157 133.378 155.157 149.968 155.157C153.703 155.157 155.211 153.648 155.211 149.986C155.211 133.396 155.211 116.806 155.211 100.215C155.211 96.4091 153.703 94.9009 149.825 94.9009C141.637 94.9009 133.45 94.9009 125.335 94.9009Z" fill="white"/>
<path d="M57.538 172.465C60.698 172.465 63.8581 172.393 66.9463 172.537C68.5263 172.608 69.1008 172.249 69.029 170.526C68.8853 166.432 68.9572 162.267 68.9572 158.173C68.9572 155.013 70.6808 153.146 73.3381 153.146C75.8517 153.217 77.5036 155.085 77.5754 158.029C77.6472 164.134 77.6472 170.238 77.5754 176.343C77.5754 179.503 75.9236 181.083 72.6917 181.083C66.5153 181.155 60.2671 181.227 54.0908 181.011C51.9362 180.939 51.5771 181.658 51.6489 183.525C51.7925 186.685 51.7207 189.773 51.6489 192.933C51.5053 194.01 52.0798 195.016 53.0853 195.375C58.7589 198.319 61.3444 204.137 59.8362 210.026C58.1126 216.92 51.1462 221.158 44.2516 219.434C39.6552 218.285 35.9925 214.694 34.8434 210.098C33.2634 204.137 35.7771 198.463 41.5225 195.447C42.5998 195.016 43.2462 193.939 43.1025 192.789C43.0307 187.762 43.0307 182.735 43.1025 177.708C43.1025 173.973 44.6107 172.465 48.3453 172.465C51.4335 172.393 54.5217 172.465 57.538 172.465ZM51.7926 206.866C51.7926 204.496 49.8535 202.629 47.4834 202.629C45.1134 202.629 43.2462 204.568 43.2462 206.938C43.2462 209.308 45.1853 211.175 47.5553 211.175H47.6271C49.9253 211.103 51.7926 209.236 51.7926 206.866Z" fill="white"/>
<path d="M192.7 172.465C195.86 172.465 199.02 172.393 202.109 172.465C205.197 172.537 206.849 174.117 206.92 177.348C206.992 182.448 206.992 187.547 206.92 192.718C206.777 193.939 207.423 195.159 208.572 195.59C213.887 198.248 216.688 204.28 215.108 210.098C213.456 216.992 206.49 221.23 199.523 219.578C194.927 218.429 191.264 214.838 190.115 210.241C188.535 204.496 191.192 198.391 196.507 195.662C197.728 195.159 198.518 193.939 198.302 192.574C198.23 189.414 198.159 186.254 198.302 183.166C198.374 181.586 198.015 181.011 196.291 181.083C190.187 181.227 184.082 181.155 177.978 181.155C173.884 181.155 172.448 179.718 172.448 175.697C172.448 169.951 172.448 164.206 172.448 158.46C172.448 155.085 174.099 153.146 176.829 153.146C179.486 153.217 181.066 155.157 181.066 158.532C181.066 162.482 181.209 166.432 180.994 170.382C180.922 172.249 181.569 172.608 183.22 172.537C186.38 172.393 189.54 172.465 192.7 172.465ZM206.92 206.938C206.92 204.568 205.053 202.629 202.683 202.629C200.313 202.629 198.374 204.496 198.374 206.866C198.374 209.236 200.241 211.175 202.611 211.175H202.683C204.981 211.175 206.849 209.308 206.92 206.938Z" fill="white"/>
<path d="M92.6573 189.701C97.3973 189.701 102.137 189.701 106.949 189.701C110.181 189.701 112.048 191.281 112.12 193.939C112.192 196.668 110.181 198.319 106.877 198.319C99.3364 198.319 91.7954 198.391 84.2545 198.319C82.6745 198.319 81.8845 198.463 81.9563 200.402C82.0999 207.943 82.0281 215.484 81.9563 223.025C81.8127 224.174 82.4591 225.251 83.5363 225.682C89.0663 228.555 91.6518 234.3 90.2154 240.118C88.5636 247.012 81.669 251.321 74.7745 249.741C70.0345 248.664 66.3717 245.001 65.2226 240.261C63.7144 234.516 66.4435 228.411 71.7581 225.754C72.9072 225.323 73.6254 224.102 73.4099 222.881C73.3381 213.76 73.3381 204.568 73.4099 195.447C73.4099 191.209 74.8463 189.773 79.0118 189.773C83.5363 189.701 88.0609 189.701 92.6573 189.701ZM77.719 241.411C80.089 241.339 81.9563 239.4 81.9563 237.03C81.8845 234.66 79.9454 232.792 77.5754 232.792C75.2054 232.864 73.3381 234.803 73.3381 237.173V237.245C73.4817 239.543 75.349 241.411 77.719 241.411Z" fill="white"/>
<path d="M157.366 189.701C162.106 189.701 166.846 189.701 171.658 189.701C175.177 189.701 176.757 191.281 176.757 194.8C176.757 204.137 176.757 213.473 176.757 222.81C176.757 224.174 177.044 224.964 178.408 225.682C183.795 228.34 186.524 234.372 184.944 240.19C183.292 247.084 176.326 251.321 169.431 249.67C164.835 248.521 161.172 245.001 160.023 240.405C158.371 234.66 161.028 228.555 166.415 225.826C167.636 225.323 168.426 224.102 168.21 222.738C168.138 215.412 168.067 208.015 168.21 200.689C168.282 198.463 167.492 198.248 165.625 198.319C158.012 198.391 150.399 198.319 142.715 198.391C140.488 198.391 138.908 197.458 138.19 195.303C137.616 193.651 138.19 191.784 139.627 190.707C140.632 189.917 141.925 189.558 143.146 189.701C147.886 189.701 152.626 189.701 157.366 189.701ZM172.376 241.411C174.746 241.482 176.685 239.543 176.757 237.173C176.828 234.803 174.889 232.864 172.519 232.792C170.149 232.72 168.21 234.66 168.138 237.03V237.101C168.138 239.4 170.006 241.339 172.376 241.411Z" fill="white"/>
<path d="M38.9371 150.919C44.3953 150.919 49.8535 150.919 55.3835 150.919C58.5435 150.919 60.4826 152.643 60.4826 155.228C60.4826 157.814 58.5435 159.537 55.3835 159.537C46.6217 159.537 37.788 159.537 29.0261 159.609C28.0925 159.609 26.297 158.676 26.1534 160.399C26.0816 162.051 25.0043 164.134 27.6616 165.427C33.1198 168.084 35.9207 174.332 34.1971 180.149C32.4016 187.044 25.2916 191.138 18.4689 189.27C14.0879 188.121 10.6406 184.674 9.3479 180.293C7.76789 174.619 9.99427 168.515 15.1652 165.786C17.1043 164.708 17.607 163.559 17.4634 161.62C17.3198 159.753 17.3916 157.886 17.4634 155.947C17.5352 152.499 19.0434 150.919 22.6343 150.919C27.9489 150.847 33.4071 150.919 38.9371 150.919ZM25.938 176.774C25.938 174.404 23.9989 172.465 21.6289 172.465C19.2588 172.465 17.3198 174.404 17.3198 176.774C17.3198 179.144 19.2588 181.083 21.6289 181.083H21.7007C23.9989 181.011 25.8661 179.072 25.938 176.774Z" fill="white"/>
<path d="M211.158 150.919C216.616 150.919 222.074 150.919 227.604 150.919C231.123 150.919 232.703 152.499 232.775 155.947C232.775 156.665 232.775 157.383 232.775 158.101C232.416 161.836 232.847 164.708 236.725 167.078C241.537 170.095 242.614 176.558 240.316 181.801C237.515 188.337 229.974 191.425 223.439 188.696C219.489 187.044 216.616 183.525 215.826 179.359C214.677 174.117 217.119 168.084 222.074 165.714C224.947 164.349 224.085 162.338 224.085 160.399C224.085 158.963 222.721 159.609 222.002 159.609C213.025 159.537 204.048 159.537 195.07 159.609C193.706 159.609 192.341 159.537 191.264 158.604C189.828 157.527 189.325 155.659 189.899 154.007C190.474 152.14 192.269 150.847 194.209 150.991C199.882 150.919 205.556 150.919 211.158 150.919ZM228.538 172.465C226.168 172.465 224.229 174.332 224.157 176.702C224.157 179.072 226.024 181.011 228.394 181.083C230.764 181.155 232.703 179.216 232.775 176.846V176.774C232.775 174.404 230.836 172.537 228.538 172.465Z" fill="white"/>
<path d="M120.738 208.805C120.738 204.137 120.738 199.469 120.738 194.8C120.738 191.64 122.39 189.701 125.047 189.701C127.705 189.701 129.356 191.64 129.356 194.8C129.356 204.065 129.428 213.258 129.356 222.522C129.356 224.102 129.644 225.036 131.224 225.826C136.467 228.555 139.052 234.444 137.616 240.118C135.964 247.012 128.997 251.321 122.103 249.67C117.506 248.592 113.844 245.001 112.623 240.405C111.043 234.731 113.556 228.77 118.727 225.97C120.523 225.036 120.882 224.03 120.81 222.235C120.666 217.782 120.738 213.258 120.738 208.805ZM129.356 237.03C129.356 234.66 127.417 232.72 125.047 232.792C122.677 232.792 120.738 234.731 120.81 237.101C120.81 239.471 122.749 241.411 125.119 241.339H125.191C127.489 241.267 129.356 239.4 129.356 237.03Z" fill="white"/>
<path d="M51.7926 17.2651C51.8644 19.6352 49.9254 21.5743 47.5553 21.6461C45.1853 21.7179 43.2462 19.7788 43.1744 17.4088C43.1026 15.0388 45.0417 13.0997 47.4117 13.0279H47.4835C49.8535 13.0279 51.7208 14.8951 51.7926 17.2651Z" fill="white"/>
<path d="M202.683 21.6461C200.313 21.7179 198.374 19.7788 198.302 17.4088C198.23 15.0388 200.17 13.0997 202.54 13.0279C204.91 12.9561 206.849 14.8951 206.92 17.2652V17.337C206.92 19.6352 205.053 21.5743 202.683 21.6461Z" fill="white"/>
<path d="M51.7927 236.958C51.8645 239.328 49.9972 241.267 47.6272 241.339C45.2572 241.411 43.3181 239.543 43.2463 237.173C43.1744 234.803 45.0417 232.864 47.4117 232.792H47.4836C49.7817 232.792 51.7208 234.66 51.7927 236.958Z" fill="white"/>
<path d="M202.54 241.411C200.17 241.339 198.302 239.4 198.302 237.03C198.374 234.66 200.313 232.792 202.683 232.792C205.053 232.864 206.92 234.803 206.92 237.173V237.245C206.849 239.543 204.91 241.411 202.54 241.411Z" fill="white"/>
<path d="M142.284 125.065C142.284 129.086 142.284 133.108 142.284 137.202C142.284 140.721 140.704 142.301 137.257 142.301C129.069 142.301 120.954 142.301 112.767 142.301C109.463 142.301 107.883 140.649 107.811 137.346C107.811 129.158 107.811 121.043 107.811 112.855C107.811 109.48 109.391 107.9 112.767 107.9C121.026 107.828 129.285 107.9 137.472 107.9C140.632 107.9 142.212 109.552 142.284 112.784C142.356 116.806 142.284 120.899 142.284 125.065ZM125.263 133.683C127.417 133.683 129.572 133.611 131.727 133.683C133.163 133.755 133.809 133.467 133.737 131.816C133.594 127.219 133.594 122.695 133.737 118.098C133.809 116.59 133.163 116.375 131.87 116.375C127.274 116.446 122.749 116.446 118.153 116.375C116.645 116.375 116.429 116.949 116.429 118.242C116.501 122.838 116.501 127.363 116.429 131.959C116.357 133.467 117.004 133.755 118.297 133.683C120.595 133.611 122.893 133.683 125.263 133.683Z" fill="white"/>
</g>
<defs>
<clipPath id="clip0_1_272">
<rect width="250" height="250" fill="white"/>
</clipPath>
</defs>
</svg>
