<svg width="250" height="251" viewBox="0 0 250 251" fill="none" xmlns="http://www.w3.org/2000/svg">
<path d="M250 0.777802H0V250.778H250V0.777802Z" fill="#001E2B"/>
<path d="M134.301 73.8408C129.464 67.2591 125.3 60.5757 124.448 59.1874C124.358 59.0857 124.224 59.0857 124.134 59.1874C123.284 60.5757 119.118 67.2591 114.281 73.8408C72.7635 134.557 120.82 175.532 120.82 175.532L121.223 175.841C121.582 182.164 122.477 191.264 122.477 191.264H124.269H126.06C126.06 191.264 126.957 182.216 127.314 175.841L127.717 175.481C127.762 175.532 175.819 134.557 134.301 73.8408ZM124.269 174.659C124.269 174.659 122.12 172.551 121.537 171.471V171.367L124.134 105.252C124.134 105.047 124.403 105.047 124.403 105.252L127 171.367V171.471C126.419 172.551 124.269 174.659 124.269 174.659Z" fill="#00ED64"/>
</svg>
