<svg width="250" height="250" viewBox="0 0 250 250" fill="none" xmlns="http://www.w3.org/2000/svg">
<path d="M250 0H0V250H250V0Z" fill="black"/>
<path d="M157.459 105.016H191.773V111.349H178.161V144.669H171.355V111.349H157.459V105.016Z" fill="white"/>
<path d="M101.026 105.016V111.349H73.521V121.538H95.6405V127.871H73.521V138.335H101.026V144.669H66.715V111.349H66.712V105.016H101.026Z" fill="white"/>
<path d="M118.16 105.033H109.253L141.156 144.686H150.089L134.135 124.874L150.063 105.064L141.156 105.077L129.676 119.335L118.16 105.033Z" fill="white"/>
<path d="M127.3 133.357L122.839 127.811L109.227 144.716H118.16L127.3 133.357Z" fill="white"/>
<path fill-rule="evenodd" clip-rule="evenodd" d="M66.9535 144.669L35.0075 105H26.5V144.653H33.306V113.476L58.4035 144.669H66.9535Z" fill="white"/>
<path d="M193.303 144.428C192.805 144.428 192.381 144.256 192.026 143.91C191.671 143.565 191.495 143.147 191.5 142.651C191.495 142.17 191.671 141.756 192.026 141.411C192.381 141.066 192.805 140.893 193.303 140.893C193.783 140.893 194.202 141.066 194.557 141.411C194.917 141.756 195.097 142.17 195.102 142.651C195.097 142.979 195.014 143.279 194.848 143.547C194.677 143.819 194.461 144.033 194.188 144.187C193.921 144.346 193.626 144.428 193.303 144.428Z" fill="white"/>
<path d="M204.92 127.723H207.936V139.343C207.931 140.41 207.7 141.324 207.249 142.092C206.792 142.86 206.16 143.446 205.349 143.86C204.542 144.268 203.596 144.478 202.522 144.478C201.539 144.478 200.659 144.3 199.875 143.955C199.091 143.61 198.468 143.092 198.012 142.41C197.55 141.728 197.324 140.879 197.324 139.861H200.345C200.35 140.306 200.451 140.692 200.645 141.015C200.838 141.337 201.106 141.583 201.447 141.756C201.793 141.928 202.19 142.015 202.637 142.015C203.121 142.015 203.536 141.915 203.873 141.71C204.209 141.51 204.468 141.21 204.648 140.81C204.823 140.415 204.915 139.924 204.92 139.343V127.723Z" fill="white"/>
<path d="M220.346 132.267C220.272 131.562 219.949 131.012 219.387 130.622C218.819 130.226 218.086 130.031 217.187 130.031C216.555 130.031 216.011 130.127 215.559 130.313C215.107 130.504 214.757 130.758 214.517 131.081C214.277 131.403 214.157 131.771 214.148 132.185C214.148 132.53 214.231 132.831 214.392 133.081C214.554 133.335 214.77 133.548 215.052 133.721C215.328 133.898 215.637 134.044 215.974 134.162C216.315 134.28 216.657 134.38 216.998 134.462L218.57 134.848C219.202 134.994 219.816 135.189 220.401 135.439C220.987 135.684 221.517 135.998 221.983 136.375C222.449 136.752 222.818 137.207 223.09 137.738C223.362 138.27 223.5 138.893 223.5 139.611C223.5 140.579 223.251 141.428 222.748 142.164C222.246 142.896 221.522 143.469 220.572 143.882C219.626 144.291 218.483 144.5 217.136 144.5C215.836 144.5 214.701 144.3 213.747 143.9C212.788 143.505 212.04 142.923 211.501 142.16C210.961 141.397 210.671 140.465 210.629 139.37H213.618C213.659 139.942 213.844 140.419 214.157 140.805C214.475 141.187 214.89 141.469 215.398 141.66C215.91 141.846 216.481 141.941 217.113 141.941C217.773 141.941 218.354 141.841 218.856 141.646C219.354 141.451 219.746 141.178 220.028 140.824C220.314 140.474 220.457 140.06 220.461 139.587C220.457 139.156 220.327 138.797 220.078 138.515C219.825 138.233 219.474 137.997 219.027 137.807C218.575 137.616 218.049 137.443 217.45 137.293L215.541 136.811C214.162 136.461 213.069 135.93 212.271 135.216C211.469 134.503 211.072 133.558 211.072 132.372C211.072 131.399 211.339 130.545 211.879 129.813C212.414 129.082 213.147 128.513 214.074 128.109C215.006 127.7 216.057 127.5 217.228 127.5C218.418 127.5 219.46 127.7 220.36 128.109C221.259 128.513 221.965 129.077 222.476 129.795C222.988 130.513 223.256 131.335 223.27 132.267H220.346Z" fill="white"/>
</svg>
