<svg width="250" height="250" viewBox="0 0 250 250" fill="none" xmlns="http://www.w3.org/2000/svg">
<path d="M123.565 201.112C122.74 201.112 121.921 200.896 121.198 200.479L113.66 196.017C112.535 195.388 113.084 195.165 113.455 195.037C114.956 194.511 115.261 194.392 116.863 193.483C117.031 193.386 117.252 193.42 117.424 193.522L123.215 196.958C123.424 197.071 123.72 197.071 123.914 196.958L146.491 183.926C146.7 183.807 146.836 183.564 146.836 183.316V157.263C146.836 157.003 146.7 156.771 146.487 156.641L123.919 143.621C123.71 143.496 123.433 143.496 123.224 143.621L100.66 156.641C100.441 156.766 100.302 157.009 100.302 157.257V183.31C100.302 183.559 100.438 183.796 100.653 183.915L106.835 187.486C110.192 189.165 112.244 187.187 112.244 185.198V159.484C112.244 159.117 112.532 158.834 112.899 158.834H115.759C116.115 158.834 116.409 159.117 116.409 159.484V185.209C116.409 189.685 113.967 192.256 109.723 192.256C108.418 192.256 107.389 192.256 104.518 190.843L98.5955 187.43C97.1318 186.582 96.2275 185 96.2275 183.31V157.257C96.2275 155.562 97.1318 153.979 98.5955 153.143L121.195 140.105C122.625 139.297 124.524 139.297 125.942 140.105L148.514 153.149C149.972 153.991 150.882 155.568 150.882 157.263V183.316C150.882 185.005 149.972 186.582 148.514 187.43L125.942 200.468C125.219 200.886 124.4 201.101 123.563 201.101" fill="#689F63"/>
<path d="M130.539 183.16C120.661 183.16 118.589 178.626 118.589 174.822C118.589 174.461 118.881 174.172 119.243 174.172H122.159C122.481 174.172 122.753 174.407 122.804 174.725C123.244 177.697 124.555 179.195 130.529 179.195C135.287 179.195 137.311 178.12 137.311 175.597C137.311 174.145 136.734 173.065 129.342 172.342C123.16 171.732 119.339 170.37 119.339 165.425C119.339 160.87 123.182 158.157 129.619 158.157C136.847 158.157 140.43 160.666 140.882 166.058C140.899 166.244 140.831 166.425 140.707 166.561C140.583 166.69 140.408 166.77 140.227 166.77H137.294C136.989 166.77 136.723 166.555 136.661 166.261C135.954 163.136 134.248 162.135 129.608 162.135C124.414 162.135 123.81 163.944 123.81 165.3C123.81 166.945 124.522 167.425 131.529 168.352C138.469 169.273 141.764 170.573 141.764 175.45C141.764 180.367 137.661 183.187 130.506 183.187M158.006 155.557H158.763C159.385 155.557 159.504 155.122 159.504 154.868C159.504 154.201 159.046 154.201 158.791 154.201H158.012L158.006 155.557ZM157.085 153.421H158.763C159.34 153.421 160.47 153.421 160.47 154.71C160.47 155.608 159.893 155.795 159.549 155.908C160.221 155.953 160.266 156.394 160.357 157.015C160.402 157.405 160.476 158.078 160.611 158.304H159.577C159.549 158.078 159.391 156.835 159.391 156.767C159.323 156.49 159.227 156.354 158.882 156.354H158.029V158.31H157.085V153.421ZM155.067 155.851C155.067 157.874 156.7 159.513 158.707 159.513C160.73 159.513 162.363 157.84 162.363 155.851C162.363 153.822 160.707 152.212 158.701 152.212C156.723 152.212 155.062 153.8 155.062 155.846M163.064 155.862C163.064 158.259 161.103 160.214 158.712 160.214C156.339 160.214 154.361 158.281 154.361 155.862C154.361 153.398 156.384 151.511 158.712 151.511C161.058 151.511 163.058 153.404 163.058 155.862" fill="#689F63"/>
<path fill-rule="evenodd" clip-rule="evenodd" d="M53.6518 99.173C53.6518 98.1331 53.1036 97.1781 52.2062 96.661L28.2693 82.8886C27.8652 82.6512 27.4125 82.5269 26.9536 82.5099H26.7061C26.2472 82.5269 25.7945 82.6512 25.3837 82.8886L1.44788 96.661C0.556094 97.1809 0 98.136 0 99.1758L0.0525577 136.271C0.0525577 136.786 0.318172 137.266 0.770281 137.52C1.21109 137.792 1.76492 137.792 2.20573 137.52L16.4359 129.371C17.3344 128.836 17.8826 127.892 17.8826 126.862V109.532C17.8826 108.498 18.4308 107.543 19.3265 107.028L25.3848 103.539C25.8346 103.279 26.3286 103.15 26.8315 103.15C27.3266 103.15 27.8318 103.278 28.2693 103.539L34.3247 107.027C35.221 107.541 35.7714 108.496 35.7714 109.53V126.859C35.7714 127.888 36.327 128.837 37.221 129.368L51.4421 137.512C51.8886 137.777 52.4441 137.777 52.8889 137.512C53.3274 137.258 53.6054 136.777 53.6054 136.263L53.6518 99.173ZM166.604 118.487C166.604 118.745 166.467 118.984 166.243 119.112L158.021 123.851C157.798 123.98 157.522 123.98 157.299 123.851L149.077 119.112C148.851 118.984 148.715 118.745 148.715 118.487V108.995C148.715 108.736 148.851 108.498 149.071 108.368L157.288 103.621C157.514 103.491 157.791 103.491 158.017 103.621L166.24 108.368C166.466 108.498 166.602 108.736 166.602 108.995L166.604 118.487ZM168.825 48.183C168.377 47.9332 167.831 47.94 167.388 48.1982C166.947 48.4582 166.675 48.9329 166.675 49.4472V86.1811C166.675 86.5427 166.482 86.8762 166.169 87.057C165.858 87.2379 165.471 87.2379 165.158 87.057L159.162 83.6035C158.269 83.0869 157.169 83.0869 156.273 83.6035L132.328 97.4228C131.433 97.937 130.881 98.8921 130.881 99.9207V127.567C130.881 128.601 131.433 129.551 132.328 130.071L156.273 143.9C157.167 144.414 158.268 144.414 159.164 143.9L183.109 130.065C184.002 129.545 184.556 128.596 184.556 127.561V58.66C184.556 57.6112 183.985 56.6465 183.07 56.1339L168.825 48.183ZM248.562 108.745C249.452 108.229 249.999 107.275 249.999 106.246V99.546C249.999 98.5152 249.451 97.564 248.56 97.0452L224.768 83.2333C223.869 82.7134 222.767 82.7134 221.869 83.2333L197.929 97.0509C197.031 97.5708 196.483 98.5202 196.483 99.5544V127.19C196.483 128.229 197.042 129.19 197.941 129.704L221.727 143.262C222.603 143.765 223.677 143.771 224.564 143.279L238.953 135.282C239.405 135.028 239.693 134.548 239.693 134.028C239.693 133.508 239.416 133.022 238.964 132.768L214.878 118.944C214.426 118.69 214.149 118.21 214.149 117.695V109.026C214.149 108.508 214.42 108.031 214.872 107.774L222.366 103.451C222.812 103.191 223.361 103.191 223.807 103.451L231.306 107.774C231.753 108.028 232.03 108.508 232.03 109.023V115.838C232.03 116.353 232.307 116.833 232.753 117.093C233.2 117.347 233.753 117.347 234.2 117.087L248.562 108.745Z" fill="#BBBBBB"/>
<path fill-rule="evenodd" clip-rule="evenodd" d="M222.968 107.452C223.137 107.352 223.35 107.352 223.522 107.452L228.116 110.103C228.288 110.202 228.393 110.385 228.393 110.583V115.89C228.393 116.088 228.288 116.271 228.116 116.37L223.522 119.021C223.35 119.121 223.137 119.121 222.968 119.021L218.376 116.37C218.201 116.271 218.094 116.088 218.094 115.89V110.583C218.094 110.385 218.195 110.202 218.37 110.103L222.968 107.452Z" fill="#689F63"/>
<mask id="mask0_1_180" style="mask-type:luminance" maskUnits="userSpaceOnUse" x="65" y="82" width="54" height="62">
<path d="M90.831 83.3713L67.0218 97.1138C66.1301 97.628 65.583 98.5775 65.583 99.6038V127.108C65.583 128.135 66.1301 129.084 67.0218 129.598L90.8327 143.351C91.7228 143.864 92.8203 143.864 93.7093 143.351L117.516 129.598C118.403 129.084 118.952 128.134 118.952 127.108V99.6038C118.952 98.5775 118.403 97.628 117.511 97.1138L93.707 83.3713C93.2606 83.1153 92.7632 82.9871 92.2659 82.9871C91.7686 82.9871 91.2713 83.1153 90.8248 83.3713" fill="white"/>
</mask>
<g mask="url(#mask0_1_180)">
<path d="M143.012 94.7803L75.9216 61.895L41.5217 132.07L108.61 164.957L143.012 94.7803Z" fill="url(#paint0_linear_1_180)"/>
</g>
<mask id="mask1_1_180" style="mask-type:luminance" maskUnits="userSpaceOnUse" x="66" y="83" width="53" height="61">
<path d="M66.173 128.854C66.4007 129.15 66.6856 129.406 67.0207 129.598L87.4447 141.395L90.8468 143.35C91.3555 143.644 91.9353 143.769 92.5049 143.726C92.6948 143.711 92.8847 143.675 93.0701 143.623L118.181 97.6433C117.989 97.4342 117.764 97.259 117.512 97.1121L101.922 88.1094L93.6816 83.3679C93.4476 83.2323 93.1938 83.1362 92.9356 83.0684L66.173 128.854Z" fill="white"/>
</mask>
<g mask="url(#mask1_1_180)">
<path d="M37.1656 104.507L84.5382 168.623L147.189 122.335L99.8138 58.2205L37.1656 104.507Z" fill="url(#paint1_linear_1_180)"/>
</g>
<mask id="mask2_1_180" style="mask-type:luminance" maskUnits="userSpaceOnUse" x="67" y="82" width="52" height="62">
<path d="M91.9816 83.0029C91.5821 83.0424 91.1916 83.1667 90.8316 83.3713L67.0902 97.0742L92.6909 143.704C93.0469 143.653 93.3973 143.534 93.7138 143.351L117.523 129.598C118.258 129.172 118.761 128.451 118.913 127.633L92.8152 83.0498C92.6231 83.0119 92.4309 82.9921 92.2331 82.9921C92.154 82.9921 92.0749 82.9961 91.9958 83.0034" fill="white"/>
</mask>
<g mask="url(#mask2_1_180)">
<path d="M67.0896 82.9921V143.705H118.903V82.9921H67.0896Z" fill="url(#paint2_linear_1_180)"/>
</g>
<defs>
<linearGradient id="paint0_linear_1_180" x1="109.447" y1="78.286" x2="75.049" y2="148.457" gradientUnits="userSpaceOnUse">
<stop offset="0.3" stop-color="#3E863D"/>
<stop offset="0.5" stop-color="#55934F"/>
<stop offset="0.8" stop-color="#5AAD45"/>
</linearGradient>
<linearGradient id="paint1_linear_1_180" x1="61.1358" y1="136.933" x2="123.789" y2="90.6391" gradientUnits="userSpaceOnUse">
<stop offset="0.57" stop-color="#3E863D"/>
<stop offset="0.72" stop-color="#619857"/>
<stop offset="1" stop-color="#76AC64"/>
</linearGradient>
<linearGradient id="paint2_linear_1_180" x1="67.1071" y1="113.35" x2="118.913" y2="113.35" gradientUnits="userSpaceOnUse">
<stop offset="0.16" stop-color="#6BBF47"/>
<stop offset="0.38" stop-color="#79B461"/>
<stop offset="0.47" stop-color="#75AC64"/>
<stop offset="0.7" stop-color="#659E5A"/>
<stop offset="0.9" stop-color="#3E863D"/>
</linearGradient>
</defs>
</svg>
