<svg width="250" height="250" viewBox="0 0 250 250" fill="none" xmlns="http://www.w3.org/2000/svg">
<g clip-path="url(#clip0_1_344)">
<path d="M125 190.284C194.036 190.284 250 161.152 250 125.216C250 89.2793 194.036 60.1472 125 60.1472C55.9644 60.1472 0 89.2793 0 125.216C0 161.152 55.9644 190.284 125 190.284Z" fill="#8993BE"/>
<path fill-rule="evenodd" clip-rule="evenodd" d="M35.1025 163.743L48.8018 94.3933H80.4785C94.1768 95.2498 101.026 102.098 101.026 114.086C101.026 134.634 84.7598 146.62 70.2041 145.763H54.7949L51.3701 163.743H35.1025ZM58.2188 132.922L62.5 107.236H73.6299C79.6231 107.236 83.9033 109.804 83.9033 114.941C83.0479 129.497 76.1982 132.065 68.4932 132.922H58.2188ZM97.8438 145.763L111.542 76.4148H127.81L124.385 94.3933H139.795C153.494 95.2498 158.631 102.098 156.919 110.661L150.926 145.763H133.803L139.796 114.086C140.651 109.804 140.651 107.236 134.659 107.236H121.816L114.111 145.763H97.8438ZM149.829 163.743L163.527 94.3933H195.205C208.904 95.2498 215.754 102.098 215.754 114.086C215.754 134.634 199.486 146.62 184.932 145.763H169.521L166.096 163.743H149.829ZM172.944 132.922L177.226 107.236H188.356C194.35 107.236 198.63 109.804 198.63 114.941C197.774 129.497 190.925 132.065 183.22 132.922H172.945H172.944Z" fill="#232531"/>
</g>
<defs>
<clipPath id="clip0_1_344">
<rect width="250" height="130.9" fill="white" transform="translate(0 60.1472)"/>
</clipPath>
</defs>
</svg>
