<svg width="250" height="250" viewBox="0 0 250 250" fill="none" xmlns="http://www.w3.org/2000/svg">
<path d="M124.804 145.748C136.348 145.748 145.707 136.389 145.707 124.845C145.707 113.301 136.348 103.942 124.804 103.942C113.259 103.942 103.901 113.301 103.901 124.845C103.901 136.389 113.259 145.748 124.804 145.748Z" fill="#00D8FF"/>
<path d="M124.804 82.345C152.869 82.345 178.94 86.3721 198.598 93.1396C222.283 101.293 236.846 113.653 236.846 124.845C236.846 136.508 221.412 149.638 195.978 158.065C176.748 164.436 151.445 167.762 124.804 167.762C97.4896 167.762 71.6246 164.64 52.183 157.995C27.5805 149.585 12.7617 136.285 12.7617 124.845C12.7617 113.744 26.6659 101.48 50.018 93.3383C69.7492 86.4596 96.4646 82.345 124.804 82.345Z" stroke="#00D8FF" stroke-width="10" stroke-miterlimit="10"/>
<path d="M87.8066 103.718C101.827 79.4058 118.34 58.8325 134.023 45.1842C152.919 28.74 170.901 22.2996 180.596 27.8904C190.7 33.7167 194.364 53.6463 188.957 79.8888C184.87 99.7296 175.11 123.31 161.801 146.389C148.155 170.051 132.53 190.897 117.06 204.419C97.4849 221.531 78.5603 227.723 68.6499 222.008C59.0337 216.462 55.3558 198.291 59.9691 173.994C63.867 153.465 73.6491 128.267 87.8066 103.718Z" stroke="#00D8FF" stroke-width="10" stroke-miterlimit="10"/>
<path d="M87.842 146.451C73.7812 122.162 64.2041 97.5812 60.212 77.1779C55.402 52.595 58.8028 33.7992 68.4887 28.1921C78.582 22.3487 97.6782 29.1271 117.714 46.9171C132.862 60.3671 148.417 80.5992 161.765 103.656C175.45 127.295 185.707 151.243 189.697 171.398C194.745 196.904 190.659 216.392 180.758 222.123C171.151 227.685 153.571 221.797 134.825 205.665C118.986 192.036 102.041 170.977 87.842 146.451Z" stroke="#00D8FF" stroke-width="10" stroke-miterlimit="10"/>
</svg>
