<svg width="250" height="250" viewBox="0 0 250 250" fill="none" xmlns="http://www.w3.org/2000/svg">
<path d="M240.2 183.221C226.86 190.175 157.748 218.591 143.035 226.26C128.321 233.933 120.147 233.858 108.524 228.302C96.9015 222.745 23.3548 193.038 10.1065 186.705C3.48461 183.54 0.00317383 180.869 0.00317383 178.346V153.077C0.00317383 153.077 95.7508 132.232 111.209 126.687C126.666 121.141 132.029 120.941 145.183 125.76C158.339 130.579 236.994 144.771 249.995 149.532C249.995 149.532 249.989 172.1 249.989 174.443C249.991 176.941 246.991 179.682 240.2 183.221Z" fill="#A41E11"/>
<path d="M240.2 157.944C226.859 164.895 157.748 193.314 143.035 200.984C128.321 208.656 120.147 208.581 108.524 203.025C96.9 197.471 23.3548 167.758 10.1065 161.428C-3.14176 155.096 -3.41952 150.737 9.5951 145.642C22.6082 140.544 95.7508 111.848 111.211 106.301C126.668 100.758 132.03 100.555 145.185 105.376C158.34 110.194 227.039 137.539 240.039 142.3C253.042 147.066 253.541 150.99 240.2 157.944Z" fill="#D82C20"/>
<path d="M240.2 142.014C226.86 148.968 157.748 177.384 143.035 185.056C128.321 192.726 120.147 192.651 108.524 187.095C96.9 181.541 23.3548 151.83 10.1065 145.498C3.48461 142.333 0.00317383 139.665 0.00317383 137.142V111.87C0.00317383 111.87 95.7508 91.0265 111.209 85.4803C126.666 79.9356 132.029 79.7342 145.183 84.553C158.339 89.3718 236.994 103.561 249.995 108.324C249.995 108.324 249.989 130.892 249.989 133.237C249.991 135.734 246.991 138.475 240.2 142.014Z" fill="#A41E11"/>
<path d="M240.2 116.737C226.859 123.691 157.748 152.107 143.035 159.779C128.321 167.449 120.147 167.374 108.524 161.818C96.9 156.264 23.3548 126.552 10.1065 120.221C-3.14176 113.89 -3.41952 109.531 9.5951 104.434C22.6082 99.3385 95.7508 70.6405 111.211 65.0957C126.668 59.551 132.03 59.3497 145.185 64.1684C158.34 68.9872 227.039 96.3302 240.039 101.093C253.042 105.858 253.541 109.783 240.2 116.737Z" fill="#D82C20"/>
<path d="M240.2 99.2782C226.86 106.232 157.748 134.65 143.035 142.322C128.321 149.992 120.147 149.917 108.524 144.361C96.9 138.807 23.3548 109.095 10.1065 102.764C3.48461 99.5986 0.00317383 96.9298 0.00317383 94.408V69.1356C0.00317383 69.1356 95.7508 48.2926 111.209 42.7478C126.666 37.2016 132.029 37.0018 145.183 41.8205C158.339 46.6393 236.994 60.8281 249.995 65.591C249.995 65.591 249.989 88.1594 249.989 90.5034C249.991 92.9987 246.991 95.7395 240.2 99.2782Z" fill="#A41E11"/>
<path d="M240.2 74.0014C226.859 80.9555 157.748 109.373 143.035 117.044C128.321 124.714 120.147 124.639 108.524 119.084C96.9015 113.529 23.3548 83.8182 10.1065 77.4873C-3.14176 71.1563 -3.41952 66.7961 9.5951 61.6996C22.6082 56.603 95.7508 27.908 111.211 22.3618C126.668 16.8156 132.03 16.6157 145.185 21.436C158.34 26.2547 227.039 53.5977 240.039 58.3607C253.042 63.1221 253.541 67.0488 240.2 74.0014Z" fill="#D82C20"/>
<path d="M157.756 49.665L136.095 51.9135L131.245 63.5819L123.413 50.5615L98.4004 48.313L117.064 41.5824L111.465 31.2513L128.938 38.0848L145.412 32.6915L140.959 43.3753L157.756 49.665Z" fill="white"/>
<path d="M129.952 106.273L89.5242 89.5054L147.455 80.6145L129.952 106.273Z" fill="white"/>
<path d="M73.9024 80.1544C91.0024 80.1544 104.865 74.7809 104.865 68.1524C104.865 61.5239 91.0024 56.1504 73.9024 56.1504C56.8023 56.1504 42.9399 61.5239 42.9399 68.1524C42.9399 74.7809 56.8023 80.1544 73.9024 80.1544Z" fill="white"/>
<path d="M183.357 52.8541L217.642 66.4036L183.386 79.9384L183.357 52.8541Z" fill="#7A0C00"/>
<path d="M145.427 67.8585L183.357 52.8541L183.386 79.9384L179.668 81.3932L145.427 67.8585Z" fill="#AD2115"/>
</svg>
