<svg width="250" height="250" viewBox="0 0 250 250" fill="none" xmlns="http://www.w3.org/2000/svg">
<path d="M215.145 138.716C206.429 138.761 198.853 140.861 192.509 143.964C190.182 139.354 187.854 135.247 187.444 132.235C186.987 128.721 186.44 126.576 186.987 122.377C187.535 118.179 189.999 112.2 189.954 111.744C189.908 111.288 189.406 109.143 184.386 109.097C179.366 109.051 175.03 110.055 174.528 111.379C174.026 112.702 173.068 115.714 172.429 118.818C171.562 123.382 162.389 139.674 157.14 148.208C155.452 144.877 153.992 141.956 153.672 139.628C153.216 136.114 152.668 133.969 153.216 129.771C153.763 125.572 156.228 119.594 156.182 119.137C156.136 118.681 155.634 116.536 150.614 116.49C145.594 116.445 141.259 117.449 140.757 118.772C140.255 120.096 139.707 123.199 138.657 126.211C137.608 129.223 125.423 156.423 122.228 163.451C120.585 167.056 119.17 169.931 118.166 171.894C118.166 171.894 118.121 172.031 117.984 172.259C117.117 173.947 116.615 174.86 116.615 174.86C116.615 174.86 116.615 174.86 116.615 174.906C115.93 176.138 115.2 177.279 114.835 177.279C114.561 177.279 114.059 173.993 114.926 169.521C116.752 160.074 121.087 145.379 121.042 144.877C121.042 144.603 121.863 142.047 118.212 140.724C114.652 139.4 113.375 141.591 113.055 141.591C112.736 141.591 112.507 142.367 112.507 142.367C112.507 142.367 116.478 125.846 104.932 125.846C97.721 125.846 87.7721 133.741 82.8433 140.861C79.74 142.549 73.1226 146.154 66.0488 150.034C63.3562 151.54 60.5724 153.046 57.9711 154.46C57.7885 154.278 57.606 154.05 57.4234 153.867C43.4585 138.944 17.6279 128.402 18.7232 108.367C19.1339 101.065 21.6439 81.8974 68.3307 58.6225C106.757 39.6831 137.334 44.9313 142.628 56.5688C150.204 73.1807 126.244 104.031 86.5399 108.504C71.3884 110.192 63.4475 104.351 61.4395 102.16C59.3402 99.8784 59.0207 99.7415 58.2449 100.198C56.9671 100.882 57.7885 102.936 58.2449 104.123C59.4315 107.226 64.3146 112.702 72.5749 115.395C79.8769 117.768 97.6297 119.092 119.125 110.786C143.176 101.476 161.978 75.5995 156.456 53.9219C150.934 31.9248 114.424 24.6685 79.8769 36.9449C59.3402 44.2468 37.0693 55.7473 21.0507 70.7163C2.02 88.5148 -0.99205 103.986 0.240151 110.466C4.66695 133.467 36.3847 148.436 49.0718 159.526C48.4329 159.891 47.8396 160.211 47.3376 160.484C40.9941 163.633 16.8064 176.275 10.7823 189.647C3.93676 204.798 11.8776 215.66 17.1259 217.12C33.4183 221.638 50.1671 213.515 59.1576 200.097C68.1481 186.68 67.0529 169.247 62.8999 161.26C62.8542 161.169 62.8086 161.078 62.7173 160.986C64.3603 160.028 66.0488 159.024 67.6918 158.066C70.932 156.149 74.1266 154.369 76.8648 152.909C75.3132 157.153 74.1722 162.219 73.6246 169.521C72.94 178.1 76.4541 189.236 81.0634 193.617C83.1171 195.534 85.5359 195.579 87.0875 195.579C92.4727 195.579 94.8915 191.107 97.5841 185.813C100.87 179.333 103.836 171.802 103.836 171.802C103.836 171.802 100.14 192.157 110.18 192.157C113.831 192.157 117.527 187.41 119.17 184.992C119.17 185.037 119.17 185.037 119.17 185.037C119.17 185.037 119.262 184.9 119.444 184.581C119.809 183.988 120.038 183.622 120.038 183.622C120.038 183.622 120.038 183.577 120.038 183.531C121.498 180.976 124.784 175.18 129.667 165.55C135.965 153.137 142.035 137.62 142.035 137.62C142.035 137.62 142.582 141.408 144.453 147.706C145.549 151.403 147.831 155.464 149.656 159.389C148.196 161.443 147.283 162.584 147.283 162.584C147.283 162.584 147.283 162.584 147.329 162.629C146.142 164.181 144.864 165.87 143.449 167.513C138.475 173.445 132.542 180.245 131.721 182.208C130.762 184.535 130.99 186.224 132.816 187.593C134.139 188.597 136.513 188.734 138.931 188.597C143.404 188.277 146.553 187.182 148.104 186.498C150.523 185.631 153.353 184.307 156 182.345C160.883 178.739 163.849 173.582 163.575 166.782C163.438 163.04 162.206 159.298 160.7 155.784C161.157 155.145 161.567 154.506 162.024 153.867C169.736 142.595 175.715 130.227 175.715 130.227C175.715 130.227 176.262 134.015 178.134 140.313C179.046 143.507 180.917 146.976 182.56 150.353C175.304 156.24 170.832 163.086 169.234 167.558C166.359 175.864 168.595 179.606 172.84 180.474C174.756 180.884 177.495 179.972 179.503 179.104C182.058 178.283 185.07 176.868 187.946 174.769C192.829 171.164 197.529 166.143 197.255 159.344C197.119 156.24 196.297 153.183 195.156 150.216C201.317 147.66 209.258 146.246 219.389 147.432C241.113 149.988 245.403 163.542 244.581 169.247C243.76 174.951 239.196 178.055 237.69 179.013C236.184 179.971 235.682 180.291 235.819 180.976C236.001 181.98 236.732 181.934 238.009 181.751C239.789 181.432 249.419 177.142 249.829 166.645C250.514 153.228 237.736 138.579 215.145 138.716ZM47.5658 195.214C40.3552 203.064 30.315 206.03 25.9795 203.52C21.3245 200.828 23.15 189.236 32.0036 180.93C37.3887 175.864 44.3256 171.164 48.9349 168.288C49.9846 167.649 51.5362 166.737 53.4074 165.596C53.7268 165.413 53.9094 165.322 53.9094 165.322C54.2745 165.094 54.6396 164.866 55.0047 164.637C58.2449 176.503 55.1416 186.954 47.5658 195.214ZM100.048 159.526C97.5384 165.641 92.2902 181.295 89.0956 180.428C86.3573 179.698 84.6688 167.832 88.5479 156.103C90.5103 150.216 94.6633 143.188 97.0821 140.45C101.007 136.069 105.342 134.608 106.392 136.388C107.716 138.716 101.6 155.693 100.048 159.526ZM143.358 180.245C142.308 180.793 141.304 181.158 140.848 180.884C140.529 180.702 141.304 179.971 141.304 179.971C141.304 179.971 146.735 174.13 148.88 171.483C150.112 169.931 151.573 168.106 153.124 166.052C153.124 166.235 153.124 166.463 153.124 166.645C153.124 173.628 146.37 178.329 143.358 180.245ZM176.764 172.624C175.989 172.076 176.126 170.251 178.727 164.546C179.731 162.31 182.104 158.568 186.166 154.962C186.622 156.423 186.942 157.838 186.896 159.161C186.85 167.969 180.552 171.255 176.764 172.624Z" fill="#CD6799"/>
</svg>
