<svg width="250" height="250" viewBox="0 0 250 250" fill="none" xmlns="http://www.w3.org/2000/svg">
<path fill-rule="evenodd" clip-rule="evenodd" d="M125.002 50.1472C91.6662 50.1472 70.8365 66.7149 62.4988 99.8504C75.0005 83.2826 89.5842 77.071 106.25 81.2105C115.758 83.5717 122.558 90.43 130.078 98.0231C142.334 110.388 156.521 124.697 187.501 124.697C220.833 124.697 241.667 108.129 250 74.9988C237.503 91.5665 222.919 97.7782 206.254 93.6338C196.74 91.2726 189.941 84.4143 182.421 76.826C170.164 64.4517 155.982 50.1472 125.002 50.1472ZM62.4988 124.697C29.1674 124.697 8.33284 141.265 0 174.4C12.5017 157.832 27.0854 151.621 43.7462 155.76C53.2597 158.121 60.0592 164.98 67.5788 172.573C79.8356 184.937 94.0176 199.247 125.002 199.247C158.334 199.247 179.168 182.684 187.501 149.549C175 166.116 160.416 172.328 143.75 168.188C134.242 165.822 127.442 158.964 119.922 151.376C107.666 139.011 93.4787 124.697 62.4988 124.697Z" fill="#38BDF8"/>
</svg>
