<svg width="250" height="250" viewBox="0 0 250 250" fill="none" xmlns="http://www.w3.org/2000/svg">
<g clip-path="url(#clip0_1_293)">
<path d="M225.586 0H24.4141C10.9305 0 0 10.9305 0 24.4141V225.586C0 239.069 10.9305 250 24.4141 250H225.586C239.069 250 250 239.069 250 225.586V24.4141C250 10.9305 239.069 0 225.586 0Z" fill="#3178C6"/>
<path d="M225.586 0H24.4141C10.9305 0 0 10.9305 0 24.4141V225.586C0 239.069 10.9305 250 24.4141 250H225.586C239.069 250 250 239.069 250 225.586V24.4141C250 10.9305 239.069 0 225.586 0Z" fill="#3178C6"/>
<path fill-rule="evenodd" clip-rule="evenodd" d="M154.755 198.938V223.381C158.729 225.418 163.429 226.946 168.854 227.964C174.28 228.983 179.999 229.492 186.01 229.492C191.869 229.492 197.435 228.932 202.708 227.812C207.98 226.691 212.604 224.845 216.578 222.273C220.551 219.702 223.697 216.341 226.015 212.19C228.333 208.04 229.492 202.91 229.492 196.799C229.492 192.368 228.83 188.485 227.505 185.15C226.181 181.814 224.271 178.848 221.774 176.251C219.278 173.654 216.285 171.324 212.795 169.261C209.305 167.199 205.37 165.251 200.988 163.418C197.779 162.094 194.9 160.808 192.353 159.561C189.806 158.312 187.641 157.04 185.857 155.741C184.074 154.442 182.699 153.067 181.731 151.616C180.763 150.165 180.279 148.522 180.279 146.689C180.279 145.009 180.712 143.494 181.578 142.144C182.444 140.794 183.667 139.636 185.246 138.668C186.826 137.701 188.761 136.95 191.054 136.415C193.347 135.88 195.894 135.613 198.696 135.613C200.733 135.613 202.886 135.766 205.153 136.071C207.42 136.377 209.7 136.848 211.993 137.484C214.285 138.121 216.514 138.923 218.679 139.891C220.844 140.858 222.844 141.979 224.678 143.252V120.412C220.959 118.986 216.896 117.93 212.489 117.242C208.083 116.555 203.026 116.211 197.32 116.211C191.512 116.211 186.01 116.835 180.814 118.083C175.618 119.33 171.045 121.278 167.097 123.926C163.148 126.574 160.028 129.948 157.736 134.047C155.443 138.146 154.297 143.048 154.297 148.751C154.297 156.034 156.398 162.247 160.602 167.39C164.804 172.533 171.185 176.887 179.744 180.452C183.106 181.827 186.24 183.176 189.144 184.5C192.047 185.825 194.557 187.2 196.67 188.625C198.785 190.051 200.453 191.604 201.676 193.285C202.899 194.965 203.51 196.875 203.51 199.014C203.51 200.593 203.128 202.057 202.364 203.406C201.6 204.756 200.44 205.927 198.887 206.92C197.333 207.913 195.397 208.689 193.079 209.25C190.761 209.81 188.048 210.09 184.94 210.09C179.642 210.09 174.395 209.161 169.198 207.302C164.002 205.443 159.187 202.655 154.755 198.938ZM113.662 138.712H145.02V118.652H57.6172V138.712H88.8213V228.027H113.662V138.712Z" fill="white"/>
</g>
<defs>
<clipPath id="clip0_1_293">
<rect width="250" height="250" fill="white"/>
</clipPath>
</defs>
</svg>
