<svg width="500" height="250" viewBox="0 0 500 250" fill="none" xmlns="http://www.w3.org/2000/svg">
<g clip-path="url(#clip0_4_56)">
<path d="M479.272 -14.7755L515.763 -22.6502L487.487 5.27342L450.996 13.1481L479.272 -14.7755Z" fill="black"/>
<path d="M442.424 -6.9191L479.349 -14.8874L451.072 13.0375L414.147 21.0058L442.424 -6.9191Z" fill="#FFC311"/>
<path d="M405.328 0.989833L442.253 -6.97844L413.977 20.9464L377.052 28.9147L405.328 0.989833Z" fill="black"/>
<path d="M368.325 8.87907L405.25 0.910797L376.974 28.8356L340.049 36.8039L368.325 8.87907Z" fill="#FFC311"/>
<path d="M331.245 16.7885L368.17 8.82021L339.894 36.7451L302.969 44.7133L331.245 16.7885Z" fill="black"/>
<path d="M294.254 24.6824L331.179 16.7141L302.902 44.639L265.977 52.6072L294.254 24.6824Z" fill="#FFC311"/>
<path d="M257.104 32.6025L294.029 24.6342L265.752 52.5591L228.827 60.5274L257.104 32.6025Z" fill="black"/>
<path d="M220.257 40.4587L257.182 32.4904L228.905 60.4153L191.98 68.3836L220.257 40.4587Z" fill="#FFC311"/>
<path d="M183.183 48.3654L220.108 40.3971L191.832 68.322L154.907 76.2902L183.183 48.3654Z" fill="black"/>
<path d="M146.176 56.2552L183.101 48.2869L154.825 76.2118L117.9 84.18L146.176 56.2552Z" fill="#FFC311"/>
<path d="M109.058 64.1685L145.983 56.2002L117.706 84.1251L80.7809 92.0934L109.058 64.1685Z" fill="black"/>
<path d="M72.0676 72.0623L108.993 64.094L80.716 92.0188L43.7909 99.9871L72.0676 72.0623Z" fill="#FFC311"/>
<path d="M34.9406 79.9717L71.8657 72.0034L43.589 99.9283L6.66391 107.897L34.9406 79.9717Z" fill="black"/>
<path d="M-1.92853 87.8303L34.9966 79.862L6.71988 107.787L-30.2052 115.755L-1.92853 87.8303Z" fill="#FFC311"/>
<path d="M-2.66242 89.0335L-35.0738 95.7569L-31.3494 116.049" fill="black"/>
<path d="M-2.66242 89.0335L-35.0738 95.7569L-31.3494 116.049" stroke="black" stroke-width="2.5"/>
<path d="M475.272 139.225L511.763 131.35L483.487 159.273L446.996 167.148L475.272 139.225Z" fill="black"/>
<path d="M438.424 147.081L475.349 139.113L447.072 167.037L410.147 175.006L438.424 147.081Z" fill="#FFC311"/>
<path d="M401.328 154.99L438.253 147.022L409.977 174.946L373.052 182.915L401.328 154.99Z" fill="black"/>
<path d="M364.325 162.879L401.25 154.911L372.974 182.836L336.049 190.804L364.325 162.879Z" fill="#FFC311"/>
<path d="M327.245 170.788L364.17 162.82L335.894 190.745L298.969 198.713L327.245 170.788Z" fill="black"/>
<path d="M290.254 178.682L327.179 170.714L298.902 198.639L261.977 206.607L290.254 178.682Z" fill="#FFC311"/>
<path d="M253.104 186.603L290.029 178.634L261.752 206.559L224.827 214.527L253.104 186.603Z" fill="black"/>
<path d="M216.257 194.459L253.182 186.49L224.905 214.415L187.98 222.384L216.257 194.459Z" fill="#FFC311"/>
<path d="M179.184 202.365L216.109 194.397L187.832 222.322L150.907 230.29L179.184 202.365Z" fill="black"/>
<path d="M142.176 210.255L179.101 202.287L150.825 230.212L113.9 238.18L142.176 210.255Z" fill="#FFC311"/>
<path d="M105.058 218.169L141.983 210.2L113.706 238.125L76.7811 246.093L105.058 218.169Z" fill="black"/>
<path d="M68.0676 226.062L104.993 218.094L76.716 246.019L39.7909 253.987L68.0676 226.062Z" fill="#FFC311"/>
<path d="M30.9406 233.972L67.8657 226.003L39.589 253.928L2.66391 261.897L30.9406 233.972Z" fill="black"/>
<path d="M-5.92829 241.83L30.9968 233.862L2.72013 261.787L-34.205 269.755L-5.92829 241.83Z" fill="#FFC311"/>
<path d="M17.9295 175.225L-18.562 167.35L9.71407 195.273L46.2055 203.148L17.9295 175.225Z" fill="black"/>
<path d="M54.7776 183.081L17.8525 175.113L46.1292 203.037L83.0543 211.006L54.7776 183.081Z" fill="#FFC311"/>
<path d="M91.8728 190.99L54.9478 183.022L83.2245 210.946L120.15 218.915L91.8728 190.99Z" fill="black"/>
<path d="M128.876 198.879L91.9507 190.911L120.227 218.836L157.152 226.804L128.876 198.879Z" fill="#FFC311"/>
<path d="M165.956 206.788L129.031 198.82L157.307 226.745L194.233 234.713L165.956 206.788Z" fill="black"/>
<path d="M202.948 214.682L166.022 206.714L194.299 234.639L231.224 242.607L202.948 214.682Z" fill="#FFC311"/>
<path d="M240.097 222.603L203.172 214.634L231.449 242.559L268.374 250.527L240.097 222.603Z" fill="black"/>
<path d="M276.944 230.459L240.019 222.49L268.296 250.415L305.221 258.384L276.944 230.459Z" fill="#FFC311"/>
<path d="M314.018 238.365L277.093 230.397L305.369 258.322L342.295 266.29L314.018 238.365Z" fill="black"/>
<path d="M351.025 246.255L314.1 238.287L342.377 266.212L379.302 274.18L351.025 246.255Z" fill="#FFC311"/>
<path d="M388.144 254.169L351.219 246.2L379.495 274.125L416.42 282.093L388.144 254.169Z" fill="black"/>
<path d="M30.9295 -9.77549L-5.56201 -17.6502L22.7141 10.2734L59.2055 18.1481L30.9295 -9.77549Z" fill="black"/>
<path d="M67.7776 -1.91912L30.8525 -9.88739L59.1292 18.0375L96.0543 26.0057L67.7776 -1.91912Z" fill="#FFC311"/>
<path d="M104.873 5.98982L67.9478 -1.97845L96.2245 25.9464L133.15 33.9147L104.873 5.98982Z" fill="black"/>
<path d="M141.876 13.8791L104.951 5.91078L133.227 33.8356L170.152 41.8039L141.876 13.8791Z" fill="#FFC311"/>
<path d="M178.956 21.7885L142.031 13.8202L170.307 41.745L207.233 49.7133L178.956 21.7885Z" fill="black"/>
<path d="M215.948 29.6824L179.022 21.7141L207.299 49.6389L244.224 57.6072L215.948 29.6824Z" fill="#FFC311"/>
<path d="M253.097 37.6025L216.172 29.6342L244.449 57.5591L281.374 65.5274L253.097 37.6025Z" fill="black"/>
<path d="M289.944 45.4587L253.019 37.4904L281.296 65.4153L318.221 73.3836L289.944 45.4587Z" fill="#FFC311"/>
<path d="M327.018 53.3654L290.093 45.3971L318.369 73.322L355.295 81.2902L327.018 53.3654Z" fill="black"/>
<path d="M364.025 61.2552L327.1 53.2869L355.377 81.2117L392.302 89.18L364.025 61.2552Z" fill="#FFC311"/>
<path d="M401.144 69.1685L364.219 61.2002L392.495 89.1251L429.42 97.0934L401.144 69.1685Z" fill="black"/>
<path d="M438.134 77.0623L401.208 69.094L429.485 97.0188L466.41 104.987L438.134 77.0623Z" fill="#FFC311"/>
<path d="M475.261 84.9717L438.335 77.0034L466.612 104.928L503.537 112.897L475.261 84.9717Z" fill="black"/>
<path d="M512.13 92.8303L475.205 84.862L503.481 112.787L540.406 120.755L512.13 92.8303Z" fill="#FFC311"/>
</g>
<defs>
<clipPath id="clip0_4_56">
<rect width="500" height="250" fill="white"/>
</clipPath>
</defs>
</svg>
