<svg width="250" height="250" viewBox="0 0 250 250" fill="none" xmlns="http://www.w3.org/2000/svg">
<g clip-path="url(#clip0_1_429)">
<path d="M249.163 18.4747L277.36 12.4445L256.922 38.6248L228.725 44.655L249.163 18.4747Z" fill="#FFC311"/>
<path d="M220.884 24.4651L249.081 18.4349L228.643 44.6153L200.446 50.6455L220.884 24.4651Z" fill="black"/>
<path d="M192.675 30.4407L220.872 24.4105L200.434 50.5909L172.237 56.6211L192.675 30.4407Z" fill="#FFC311"/>
<path d="M164.408 36.4324L192.605 30.4022L172.167 56.5826L143.97 62.6127L164.408 36.4324Z" fill="black"/>
<path d="M136.208 42.4131L164.405 36.3829L143.967 62.5633L115.77 68.5935L136.208 42.4131Z" fill="#FFC311"/>
<path d="M107.887 48.4119L136.084 42.3818L115.645 68.5621L87.4485 74.5923L107.887 48.4119Z" fill="black"/>
<path d="M79.7971 54.3625L107.994 48.3324L87.5559 74.5127L59.3589 80.5429L79.7971 54.3625Z" fill="#FFC311"/>
<path d="M51.5345 60.3518L79.7314 54.3217L59.2932 80.502L31.0962 86.5322L51.5345 60.3518Z" fill="black"/>
<path d="M23.3223 66.3277L51.5193 60.2975L31.081 86.4779L2.884 92.5081L23.3223 66.3277Z" fill="#FFC311"/>
<path d="M-4.97485 72.3214L23.2222 66.2912L2.7839 92.4716L-25.4131 98.5018L-4.97485 72.3214Z" fill="black"/>
<path d="M265.298 160.534L293.164 154.574L272.726 180.754L244.86 186.713L265.298 160.534Z" fill="black"/>
<path d="M237.207 166.484L265.404 160.454L244.966 186.634L216.769 192.665L237.207 166.484Z" fill="#FFC311"/>
<path d="M208.928 172.475L237.125 166.445L216.686 192.625L188.489 198.655L208.928 172.475Z" fill="black"/>
<path d="M180.719 178.45L208.916 172.42L188.478 198.601L160.281 204.631L180.719 178.45Z" fill="#FFC311"/>
<path d="M152.451 184.442L180.648 178.412L160.21 204.592L132.013 210.622L152.451 184.442Z" fill="black"/>
<path d="M124.251 190.423L152.448 184.393L132.01 210.573L103.813 216.603L124.251 190.423Z" fill="#FFC311"/>
<path d="M95.9305 196.422L124.127 190.391L103.689 216.572L75.4922 222.602L95.9305 196.422Z" fill="black"/>
<path d="M67.8406 202.372L96.0376 196.342L75.5993 222.522L47.4023 228.553L67.8406 202.372Z" fill="#FFC311"/>
<path d="M39.5779 208.361L67.7749 202.331L47.3366 228.512L19.1396 234.542L39.5779 208.361Z" fill="black"/>
<path d="M11.3657 214.337L39.5627 208.307L19.1245 234.488L-9.07254 240.518L11.3657 214.337Z" fill="#FFC311"/>
<path d="M-16.9314 220.331L11.2656 214.301L-9.17265 240.481L-37.3697 246.511L-16.9314 220.331Z" fill="black"/>
<path d="M-14.1067 166.495L-42.3037 160.464L-21.8654 186.645L6.33156 192.675L-14.1067 166.495Z" fill="#FFC311"/>
<path d="M14.1726 172.485L-14.0244 166.455L6.41386 192.635L34.6109 198.666L14.1726 172.485Z" fill="black"/>
<path d="M42.3813 178.461L14.1843 172.431L34.6226 198.611L62.8196 204.641L42.3813 178.461Z" fill="#FFC311"/>
<path d="M70.6489 184.452L42.4519 178.422L62.8902 204.603L91.0872 210.633L70.6489 184.452Z" fill="black"/>
<path d="M98.8488 190.433L70.6519 184.403L91.0901 210.583L119.287 216.613L98.8488 190.433Z" fill="#FFC311"/>
<path d="M127.17 196.432L98.9729 190.402L119.411 216.582L147.608 222.612L127.17 196.432Z" fill="black"/>
<path d="M155.26 202.383L127.063 196.352L147.501 222.533L175.698 228.563L155.26 202.383Z" fill="#FFC311"/>
<path d="M183.522 208.372L155.325 202.342L175.764 228.522L203.961 234.552L183.522 208.372Z" fill="black"/>
<path d="M211.735 214.348L183.538 208.318L203.976 234.498L232.173 240.528L211.735 214.348Z" fill="#FFC311"/>
<path d="M240.032 220.341L211.835 214.311L232.273 240.492L260.47 246.522L240.032 220.341Z" fill="black"/>
<path d="M268.23 226.322L240.033 220.292L260.471 246.472L288.668 252.502L268.23 226.322Z" fill="#FFC311"/>
<path d="M-11.1067 -8.50531L-39.3037 -14.5355L-18.8654 11.6449L9.33156 17.6751L-11.1067 -8.50531Z" fill="#FFC311"/>
<path d="M17.1726 -2.51484L-11.0244 -8.54503L9.41386 17.6353L37.6109 23.6655L17.1726 -2.51484Z" fill="black"/>
<path d="M45.3813 3.46071L17.1843 -2.56947L37.6226 23.6109L65.8196 29.6411L45.3813 3.46071Z" fill="#FFC311"/>
<path d="M73.6489 9.45241L45.4519 3.42223L65.8902 29.6026L94.0872 35.6328L73.6489 9.45241Z" fill="black"/>
<path d="M101.849 15.4331L73.6519 9.40294L94.0901 35.5833L122.287 41.6135L101.849 15.4331Z" fill="#FFC311"/>
<path d="M130.17 21.432L101.973 15.4018L122.411 41.5822L150.608 47.6123L130.17 21.432Z" fill="black"/>
<path d="M158.26 27.3826L130.063 21.3524L150.501 47.5328L178.698 53.563L158.26 27.3826Z" fill="#FFC311"/>
<path d="M186.522 33.3719L158.325 27.3417L178.764 53.5221L206.961 59.5522L186.522 33.3719Z" fill="black"/>
<path d="M214.735 39.3478L186.538 33.3176L206.976 59.4979L235.173 65.5281L214.735 39.3478Z" fill="#FFC311"/>
<path d="M243.032 45.3414L214.835 39.3112L235.273 65.4916L263.47 71.5218L243.032 45.3414Z" fill="black"/>
<path d="M271.23 51.3221L243.033 45.2919L263.471 71.4723L291.668 77.5024L271.23 51.3221Z" fill="#FFC311"/>
</g>
<defs>
<clipPath id="clip0_1_429">
<rect width="250" height="250" fill="white"/>
</clipPath>
</defs>
</svg>
