<svg width="32" height="32" viewBox="0 0 480 480" fill="none" xmlns="http://www.w3.org/2000/svg">
<rect width="480" height="480" rx="61" fill="#100D25"/>
<path d="M40 40C70 110 70 320 40 400C80.6667 398 165.5 400 120 440C138 440 160 407 160 360C160 280 151.5 276 100 276C110 256 110 220 100 200C120 210 160 210 180 200L240 420L300 200C320 210 360 210 380 200C370 220 370 256 380 276C328.5 276 320 280 320 360C320 407 342 440 360 440C314.5 400 399.333 398 440 400C410 320 410 110 440 40C419.5 53.5 312.4 72.4 280 40L240 200L200 40C167.6 72.4 60.5 53.5 40 40Z" fill="#915DFF"/>
</svg>
