<svg width="130px" height="51px" viewBox="0 0 130 51" version="1.1"
    xmlns="http://www.w3.org/2000/svg" xmlns:xlink="http://www.w3.org/1999/xlink">
    <title>7ECC0603-6677-49B1-A5CC-E06FADF90D4B</title>
    <g id="UI" stroke="none" stroke-width="1" fill="none" fill-rule="evenodd">
        <g id="Home-black" transform="translate(-80.000000, -36.000000)" fill="#FC6A28">
            <g id="Group-8">
                <g id="header" transform="translate(80.000000, 36.000000)">
                    <g id="logo">
                        <path id="Combined-Shape"
                            d="M84.0612036,33.5213379 C84.2134893,33.5213379 84.365775,33.5287561 84.573775,33.535247 C84.489275,33.7870016 84.4293821,33.9835834 84.3574179,34.1755288 C83.5718464,36.2776561 82.6869179,38.3357379 81.5665964,40.2848652 C80.527525,42.0911925 79.2953107,43.7482288 77.7339179,45.1456288 C76.6915964,46.0784652 75.5239179,46.8314106 74.3149179,47.5226925 C72.1244179,48.7749743 69.792775,49.6711834 67.3209179,50.1742288 C66.3357036,50.3740561 65.330525,50.482547 64.3313821,50.6058743 C62.9454893,50.7769561 61.5493821,50.7514561 60.1634893,50.6703197 C56.5448464,50.4584379 53.1290964,49.5617652 50.0949893,47.4879197 C47.5168107,45.7261016 45.6118464,43.4014288 44.3155607,40.5709288 C43.7138464,39.2560561 43.2574536,37.8915743 42.9324536,36.483047 C42.8516679,36.1330016 42.8725607,36.0959106 43.2091679,36.0365652 C45.0008464,35.7199016 46.7920607,35.4041652 48.5837393,35.0902834 C49.9626679,34.8468743 51.3420607,34.606247 52.7214536,34.3651561 C52.7711321,34.3568106 52.8226679,34.3568106 52.9108821,34.3498561 C52.9652036,34.5121288 53.0204536,34.6683743 53.071525,34.8269379 C53.8357393,37.2193016 55.2104893,39.1628652 57.3211321,40.5565561 C58.6267036,41.4184561 60.0641321,41.8867288 61.6259893,42.0295288 C63.8717393,42.2367743 65.9828464,41.7991016 67.979275,40.7869834 C69.4194893,40.0562925 70.6739893,39.0622561 71.827275,37.9430379 C72.724275,37.0727925 73.241025,35.967947 73.6672393,34.8162743 C73.780525,34.509347 73.8873107,34.1996379 73.995025,33.8903925 C74.1222393,33.5269016 74.1213107,33.5264379 74.4894893,33.5213379 L74.6666143,33.5204106 L74.6666143,33.5204106 L74.8437393,33.5208743 C77.9159179,33.5208743 80.989025,33.5208743 84.0612036,33.5213379 Z M29.0187857,0.00135394172 C32.6295357,0.00691973594 36.24075,0.00460155413 39.8515,0.00645609958 C40.1867143,0.00645609958 40.2322143,0.0463288269 40.2860714,0.375974281 C40.5548929,2.04181974 40.8181429,3.70998337 41.0883571,5.37629246 C41.3353571,6.90072883 41.5883929,8.42423792 41.8381786,9.94821065 C42.0308571,11.1226016 42.2249286,12.2983834 42.4152857,13.4741652 C42.4603214,13.7504925 42.42225,14.0096652 42.2978214,14.2730106 C41.3650714,16.2420743 40.5688214,18.2649197 40.0279286,20.3791016 C39.6569643,21.8265743 39.3909286,23.2939834 39.2651071,24.7855016 C39.2456071,25.0201016 39.2075357,25.2537743 39.1954643,25.4888379 C39.1861786,25.6696561 39.1012143,25.7378106 38.9275714,25.7545016 C38.5106429,25.7939106 38.0960357,25.8565016 37.6786429,25.8926652 C36.8568571,25.9636016 36.0336786,26.0234106 35.2109643,26.0860016 C35.1612857,26.0897106 35.1106786,26.0762652 35.0336071,26.068847 C34.2610357,20.9224834 33.514,15.7798288 32.734,10.5792197 C32.61375,10.6696288 32.5585,10.6909561 32.5366786,10.7303652 C29.0675357,17.0358197 25.6011786,23.3440561 22.1362143,29.6527561 C22.1074286,29.7046834 22.1088214,29.7751561 22.09675,29.8358925 C22.3720714,29.9072925 27.7225,29.3653016 28.8172857,29.2387288 C31.05375,28.9790925 33.2971786,28.7862197 35.5368929,28.5581106 C37.7766071,28.3300016 40.0158571,28.0903016 42.2551071,27.8594106 C44.4948214,27.6285197 46.7345357,27.399947 48.97425,27.1741561 C51.2148929,26.9492925 53.456,26.7341652 55.6961786,26.507447 C57.9358929,26.2807288 60.1746786,26.0438106 62.4143929,25.8119925 C64.6536429,25.5801743 66.8924286,25.344647 69.1326071,25.1183925 C71.38625,24.890747 73.6403571,24.6751561 75.894,24.4489016 C78.1341786,24.2235743 80.3738929,23.9940743 82.6136071,23.7631834 C84.8528571,23.5318288 87.0911786,23.2912016 89.3308929,23.0621652 C91.5706071,22.8340561 93.8121786,22.6152197 96.0523571,22.3908197 C98.2925357,22.1668834 100.533179,21.9438743 102.772893,21.7143743 L109.490643,21.0142834 L109.490643,21.0142834 C111.729893,20.7838561 113.970071,20.555747 116.21025,20.3308834 C118.450429,20.1055561 120.692,19.8922834 122.931714,19.6646379 C125.170964,19.4369925 127.408357,19.1968288 129.648536,18.9807743 C128.617357,19.1625197 127.587107,19.3461197 126.555929,19.5269379 C125.125,19.7782288 123.694071,20.0290561 122.263143,20.2789561 L118.433714,20.9461288 L118.433714,20.9461288 L114.643286,21.6105197 L114.643286,21.6105197 C113.367429,21.8349197 112.091107,22.0579288 110.814786,22.2818652 C109.551,22.5016288 108.28675,22.7218561 107.023429,22.9430106 C105.734107,23.1678743 104.44525,23.3945925 103.156857,23.6199197 L99.3664286,24.2857016 L99.3664286,24.2857016 C98.0901071,24.5087106 96.8133214,24.7335743 95.537,24.9561197 C94.2741429,25.1772743 93.0103571,25.3961106 91.7465714,25.6172652 C90.3156429,25.8680925 88.8851786,26.1203106 87.45425,26.3725288 C85.8566429,26.6539561 84.2581071,26.940947 82.6600357,27.2191288 C80.9324286,27.5204925 79.2029643,27.8107288 77.4748929,28.1130197 C75.76075,28.4129925 74.0484643,28.7278016 72.3338571,29.0282379 C70.60625,29.3309925 68.8767857,29.6203016 67.1491786,29.9216652 C65.5761786,30.1966016 64.0050357,30.4822016 62.4325,30.7589925 C60.7438929,31.0561834 59.0538929,31.3468834 57.3652857,31.643147 C55.3159286,32.0029288 53.2670357,32.3668834 51.21675,32.7252743 C49.6572143,32.9978925 48.0958214,33.2617016 46.5358214,33.535247 C44.9498214,33.8129652 43.3656786,34.0999561 41.7801429,34.376747 C40.0525357,34.6781106 38.3230714,34.9688106 36.5954643,35.2711016 L31.4539643,36.1858561 L31.4539643,36.1858561 C29.8814286,36.4617197 28.3065714,36.7255288 26.7335714,37.0009288 L22.4811786,37.7561925 L22.4811786,37.7561925 C21.07625,38.0033106 19.6699286,38.2439379 18.2645357,38.4896652 C18.0068571,38.5337106 17.7515,38.6083561 17.4924286,38.6264379 C17.24775,38.6435925 17.1172857,38.7664561 17.0077143,38.9639652 C16.3883571,40.073447 15.7532143,41.1741197 15.1422143,42.2887016 C13.6685714,44.9791834 12.2032857,47.6738379 10.7431071,50.3722016 C10.621,50.5970652 10.4807857,50.6865488 10.2207857,50.6865488 C6.91182143,50.6791288 3.60285714,50.6819106 0.293892857,50.6809834 C0.206607143,50.6809834 0.119785714,50.6656834 -1.42108547e-14,50.6554834 C0.0385357143,50.5673925 0.0575714286,50.508047 0.0872857143,50.4542652 C1.781,47.4661288 3.47564286,44.4784561 5.16935714,41.4889288 C6.91507143,38.4099197 8.65892857,35.3290561 10.4046429,32.250047 L15.9328929,22.4983834 L15.9328929,22.4983834 C17.93025,18.9733561 19.92575,15.4478652 21.9235714,11.9233016 C23.7723571,8.6611561 25.623,5.40040155 27.4731786,2.13779246 C27.8227857,1.52208337 28.1793571,0.911474281 28.5173571,0.288810645 C28.6329643,0.0750742814 28.7796786,0.00135394172 29.0187857,0.00135394172 Z M39.9173821,37.006307 C40.3918821,38.9897434 41.0799536,40.8934343 42.0349893,42.6988343 C42.9408107,44.4110434 44.0295607,45.9971434 45.3314179,47.4302434 C46.4094893,48.6185434 47.718775,49.5128979 49.1274179,50.2672343 C49.3642036,50.3951979 49.6060964,50.5148161 49.9310964,50.6817252 L39.1740607,50.6817252 C39.0951321,50.6817252 39.0166679,50.6789434 38.9377393,50.6812616 C38.7464536,50.6872888 38.6535964,50.5954888 38.6266679,50.4053979 C38.5259179,49.6807343 38.4168107,48.955607 38.310025,48.231407 C38.1419536,47.0922525 37.9748107,45.9530979 37.8058107,44.8139434 C37.6335607,43.6492888 37.4599179,42.4841706 37.2867393,41.3204434 C37.1130964,40.1557888 36.938525,38.9911343 36.7667393,37.8255525 C36.737025,37.6215525 36.7221679,37.4152343 36.698025,37.1880525 C37.2152393,37.0916161 37.7008821,36.9974979 38.1874536,36.909407 C38.599275,36.8342979 39.012025,36.7642888 39.4238464,36.6905706 C39.7655607,36.628907 39.8356679,36.6660329 39.9173821,37.006307 Z M100.918629,25.767947 C100.80395,26.3312652 100.697629,26.8621288 100.587129,27.3906743 C99.9422357,30.4826652 99.2978071,33.5741925 98.6496643,36.6652561 C97.9625214,39.9464106 97.2712,43.2275652 96.5817357,46.509647 C96.3440214,47.6413834 96.1081643,48.7731197 95.8681286,49.9057834 C95.7862714,50.2930981 95.7768099,50.3238572 95.4245419,50.3262975 L85.5205929,50.3265076 C85.6338786,49.7574197 85.73045,49.2506652 85.8367714,48.7443743 C86.5081286,45.5392561 87.1808786,42.3341379 87.8550214,39.1290197 C88.48645,36.1274379 89.1197357,33.1253925 89.7520929,30.1247379 C89.8997357,29.4255743 90.0478429,28.725947 90.1927,28.0253925 C90.2776643,27.6146106 90.2762714,27.6002379 90.6685929,27.5306925 C91.6148071,27.3605379 92.5633429,27.2015106 93.5104857,27.0359925 C94.9182,26.7884106 96.3259143,26.5403652 97.7336286,26.2918561 C98.6673071,26.1268016 99.6009857,25.956647 100.535593,25.793447 C100.647486,25.7739743 100.764021,25.778147 100.918629,25.767947 Z M70.0011,0.0191597359 C73.8802071,0.191632463 77.5462071,1.09433246 80.7660286,3.37913246 C84.0197429,5.68711428 86.2232429,8.74711428 87.2493143,12.6143052 C87.5042071,13.5735688 87.6639214,14.5583325 87.8644929,15.5319688 C87.8807429,15.6084688 87.8774929,15.6886779 87.8816456,15.7670325 C87.8886357,15.9316234 87.80135,16.0062688 87.6434929,16.0118325 C87.5650286,16.0150779 87.4861,16.0173961 87.4071714,16.0173961 C84.2175286,16.0127597 81.0274214,16.008587 77.8373143,16.0020961 C77.3994929,16.0016325 77.3864929,15.9942143 77.3173143,15.5500506 C77.1826714,14.6890779 76.9166357,13.871687 76.5651714,13.0774779 C75.8497071,11.4658779 74.5919571,10.4259416 73.0222071,9.72121428 C72.1075643,9.31182337 71.1451,9.04476883 70.1427071,8.98681428 L69.2122098,8.93280923 C68.5911675,8.90073246 67.96985,8.88465974 67.3551357,8.9334961 C64.92785,9.12915065 62.7159929,9.97204155 60.6921714,11.321687 C58.7184929,12.637487 57.2281357,14.3900325 56.0200643,16.4049961 C55.0107071,18.0889234 54.2766714,19.8975688 53.6192429,21.7368143 C53.3197786,22.5746052 53.0792786,23.4332597 52.8262429,24.2863506 C52.7672786,24.4857143 52.6660643,24.5496961 52.4664214,24.566387 C51.3581714,24.6595779 50.25085,24.7699234 49.1421357,24.867287 L46.9887786,25.0397597 L46.9887786,25.0397597 C46.2589214,25.1042052 45.5299929,25.1816325 44.8001357,25.2525688 C44.5136714,25.2799234 44.2267429,25.3054234 43.9398143,25.3281416 C43.4829571,25.3643052 43.0261,25.3995416 42.5687786,25.428287 C42.4814929,25.4347779 42.3932786,25.4106688 42.2758143,25.397687 C42.2990286,25.0940052 42.3092429,24.8088688 42.3431357,24.5274416 C42.6997071,21.5207597 43.6064571,18.6777416 44.87535,15.9357961 C45.8856357,13.7502143 47.05935,11.6670961 48.5390286,9.76015974 C50.6849571,6.99688701 53.2947071,4.78348701 56.3729214,3.11393246 C58.7537786,1.82177792 61.2720643,0.914441554 63.9347429,0.429014281 C64.8726,0.257468827 65.8267071,0.152687009 66.7775643,0.0900960996 C67.8496,0.0196233723 68.9295286,-0.0285948095 70.0011,0.0191597359 Z M120.847164,0.0253724632 C120.80445,0.343427009 120.774271,0.637372463 120.724593,0.928999736 C120.236629,3.80539974 119.745879,6.68179974 119.255593,9.55866337 C119.227271,9.72649974 119.18595,9.89340883 119.173414,10.0617088 C119.157629,10.2865725 119.033664,10.3510179 118.833093,10.3417452 C118.715164,10.3357179 118.596771,10.3417452 118.478379,10.3417452 L105.087914,10.3417452 C104.344593,10.3417452 104.413771,10.3222725 104.24895,10.9792452 L102.064021,19.6631543 L102.064021,19.6631543 C102.041736,19.7530997 102.010164,19.8393361 101.99345,19.9297452 C101.965593,20.0836725 101.875986,20.1453361 101.722307,20.1578543 C101.108986,20.2060725 100.496129,20.2607816 99.8837357,20.3178088 C99.1408786,20.3868906 98.3984857,20.4643179 97.6556286,20.5315452 C96.9643071,20.5945997 96.2725214,20.6474543 95.5812,20.707727 C94.8123429,20.7768088 94.0430214,20.8523816 93.2737,20.9186816 C92.6766286,20.9715361 92.0786286,21.0146543 91.4295571,21.0661179 C92.2996286,17.5012179 93.2040571,13.9845361 94.0778429,10.4015543 C93.84895,10.3765179 93.6873786,10.3449906 93.5248786,10.3440634 C92.3432714,10.339427 91.1616643,10.3426725 89.9800571,10.3408179 C89.5236643,10.3403543 89.5218071,10.3384997 89.3927357,9.89479974 C88.4065929,6.50005428 86.4213071,3.79334519 83.6444143,1.64949065 C82.9308071,1.09776337 82.1443071,0.642008827 81.3903071,0.142208827 C81.3508429,0.114854281 81.3099857,0.0907451905 81.20645,0.0253724632 L120.847164,0.0253724632 Z"></path>
                    </g>
                </g>
            </g>
        </g>
    </g>
</svg>