<svg width="250" height="250" viewBox="0 0 250 250" fill="none" xmlns="http://www.w3.org/2000/svg">
<path d="M92.969 17.7734C90.4299 18.75 88.1838 20.6055 86.719 23.1445C85.5471 25.0976 85.4494 25.7812 85.5471 28.9062C85.5471 30.8594 85.6447 32.8125 85.7424 33.3984C85.8401 34.1797 79.4924 40.0391 55.5666 61.0351L25.1955 87.6953H21.4846C18.2619 87.6953 17.5783 87.8906 15.6252 88.9648C14.4533 89.7461 12.7932 91.2109 12.0119 92.1875C7.42209 98.5352 10.1565 107.617 17.4807 110.156L19.1408 110.742L41.6018 161.719L64.0627 212.695L62.6955 215.039C61.5236 217.09 61.3283 217.871 61.3283 220.898C61.3283 223.926 61.5237 224.707 62.5979 226.66C65.0393 230.762 69.3362 232.91 74.0237 232.52C77.1487 232.227 79.1018 231.152 81.5432 228.613L83.4963 226.562L133.496 212.305L183.496 198.047L184.961 198.926C186.035 199.512 187.598 199.805 190.039 199.805C193.164 199.805 193.848 199.707 195.899 198.437C201.758 194.824 203.418 187.5 199.61 181.836L198.047 179.492L213.281 122.07C221.68 90.5273 228.516 64.6484 228.516 64.5508C228.516 64.4531 229.492 64.2578 230.567 64.0625C233.399 63.6719 236.719 61.4258 238.379 58.7891C241.895 53.2227 240.137 45.9961 234.473 42.3828C232.422 41.2109 231.739 41.0156 228.614 41.0156C225.586 41.0156 224.707 41.2109 222.852 42.2851C221.68 43.0664 220.313 44.1406 219.824 44.7266L218.946 45.8984L164.063 36.1328C133.887 30.8594 109.082 26.5625 108.985 26.5625C108.789 26.5625 108.301 25.7812 107.91 24.8047C105.957 20.3125 102.344 17.6758 97.6565 17.3828C95.8986 17.1875 94.0432 17.3828 92.969 17.7734ZM163.77 40.8203C192.676 45.8008 216.504 50 216.602 50C216.699 50 216.797 50.6836 216.699 51.4648L216.602 52.832L186.133 65.2344C169.434 72.0703 155.567 77.6367 155.371 77.6367C155.176 77.6367 154.102 76.8555 152.93 75.9766C149.61 73.5352 147.071 73.0469 141.406 73.9258C140.821 74.0234 121.387 53.0273 106.934 36.7187C106.348 36.0351 106.348 35.7422 107.227 34.375C107.813 33.4961 108.203 32.4219 108.203 31.9336C108.203 31.25 108.399 31.1523 109.766 31.3476C110.449 31.543 134.863 35.7422 163.77 40.8203ZM95.801 40.4297C97.6565 40.5273 99.219 40.4297 100.586 39.9414C102.539 39.2578 102.735 39.2578 103.418 40.0391C104.102 40.8203 133.887 73.9258 135.84 76.0742C136.719 77.0508 136.719 77.1484 135.547 79.1992C134.864 80.3711 134.18 82.5195 133.985 83.8867L133.692 86.5234L115.235 94.043L96.7776 101.562L95.1174 100.195C92.2854 97.6562 90.8205 97.0703 86.9143 97.0703C83.7893 97.0703 83.1057 97.168 81.0549 98.4375C79.7854 99.3164 78.1252 100.879 77.1486 102.148C75.9768 103.906 75.2932 104.492 74.6096 104.395C72.5588 104.199 35.1565 98.6328 34.1799 98.4375C33.4963 98.3398 33.008 97.6562 32.7151 96.1914C32.4221 95.0195 31.5432 93.2617 30.7619 92.1875L29.2971 90.2344L42.5783 78.5156C49.8049 72.0703 63.2815 60.2539 72.3635 52.2461L88.8674 37.5976L90.9182 38.7695C92.383 39.7461 94.0432 40.332 95.801 40.4297ZM218.653 58.3984C219.141 59.2773 217.578 61.9141 202.051 85.3516L184.766 111.328L181.739 111.035C179.59 110.84 178.028 110.937 176.758 111.426L174.903 112.109L166.016 102.344C161.133 96.9727 156.934 92.1875 156.641 91.7969C156.153 91.1133 156.25 90.625 156.738 88.8672C157.129 87.6953 157.422 85.7422 157.324 84.4727L157.227 82.1289L187.403 69.8242C204.004 63.0859 217.774 57.5195 217.871 57.5195C217.969 57.4219 218.262 57.9101 218.653 58.3984ZM223.633 63.0859C223.828 63.4766 198.047 162.109 194.531 174.512C193.75 177.246 192.676 177.832 192.285 175.684C191.602 172.363 185.449 133.301 185.547 133.203C187.305 132.227 189.453 130.078 190.43 128.32C191.602 126.465 191.699 125.586 191.699 122.559C191.699 119.336 191.602 118.75 190.137 116.504L188.574 114.062L191.016 110.254C211.719 78.9062 222.656 62.5976 222.852 62.5976C223.242 62.5976 223.535 62.8906 223.633 63.0859ZM136.621 92.5781C137.207 93.3594 138.672 94.5312 139.844 95.2148C141.797 96.3867 142.578 96.4844 145.606 96.4844C148.34 96.4844 149.512 96.2891 150.879 95.4101L152.637 94.3359L161.133 103.809C172.168 116.016 171.192 114.648 170.117 116.602C169.629 117.48 169.043 118.262 168.75 118.262C168.262 118.262 103.028 108.691 100.196 108.203C99.0236 108.008 98.633 107.715 98.633 106.836C98.633 105.859 100 105.176 114.453 99.3164C123.145 95.8008 131.055 92.4805 132.129 92.0898C134.863 91.0156 135.449 91.0156 136.621 92.5781ZM55.3713 106.445L74.9026 109.375L75.6838 111.816C76.758 115.039 78.7111 117.383 81.5432 118.848C82.8127 119.531 83.8869 120.02 83.9846 120.117C83.9846 120.117 81.6408 139.746 78.7111 163.672C75.7815 187.598 73.3401 207.617 73.3401 208.203C73.3401 209.082 72.9494 209.277 70.7033 209.668L68.0666 210.156L67.383 208.789C66.9924 208.008 57.1291 185.645 45.4104 159.082L24.1213 110.84L25.5862 110.156C27.9299 109.18 30.0783 107.324 31.3479 105.176C32.5197 103.223 32.6174 103.125 34.1799 103.418C35.1565 103.418 44.6291 104.785 55.3713 106.445ZM133.106 117.969C152.246 120.801 168.067 123.145 168.164 123.145C168.262 123.145 168.555 123.926 168.75 124.902C168.946 125.879 169.336 127.246 169.727 127.93C170.313 129.199 170.313 129.297 167.09 132.422C165.235 134.18 145.41 153.125 122.949 174.512L82.0315 213.477L79.7854 211.816C77.9299 210.449 77.6369 209.961 77.8322 208.984C77.9299 208.301 80.469 188.184 83.3986 164.355C86.3283 140.43 88.8674 120.605 89.0627 120.41C89.1604 120.215 89.6487 120.02 90.1369 120.02C91.6018 120.02 95.3127 117.187 96.6799 115.137C97.3635 113.965 98.0471 112.988 98.0471 112.988C98.2424 112.793 113.965 115.039 133.106 117.969ZM178.613 134.18C180.274 134.375 180.762 134.668 180.957 135.449C181.055 135.937 182.52 144.922 184.278 155.371C186.035 165.82 187.403 174.902 187.598 175.586C187.793 176.66 187.696 176.855 186.524 177.051C184.473 177.441 181.446 179.883 180.078 182.324C178.516 185.059 178.028 188.965 179.102 191.895C179.492 193.066 179.785 194.043 179.688 194.141C179.492 194.336 84.9611 221.387 84.8635 221.289C84.8635 221.289 84.6682 220.41 84.5705 219.434L84.2776 217.676L129.004 175L173.828 132.324L175.196 133.008C175.977 133.594 177.442 133.984 178.613 134.18Z" fill="white"/>
</svg>
