<svg width="250" height="250" viewBox="0 0 250 250" fill="none" xmlns="http://www.w3.org/2000/svg">
<path d="M60.5163 1.05887C57.4482 2.85896 57.025 5.40025 57.025 21.9187V37.59H51.5235C47.08 37.59 45.5988 37.9077 43.5887 39.2842C39.1452 42.3549 37.9814 44.5786 37.664 51.1436L37.4524 57.0733H21.6885C0.846381 57.0733 0.211595 57.3909 0.211595 68.2973C0.211595 74.0153 0.317393 74.5447 2.32755 76.5565L4.4435 78.6743H20.9479H37.4524V86.8276V95.0868L20.5248 95.2986L3.59712 95.5104L1.79856 97.6281C0.211595 99.5341 0 100.487 0 106.099C0 112.135 0.105798 112.558 2.11595 114.676L4.23191 116.794H20.7363H37.2408V125.053V133.312H21.0537H4.5493L2.43335 135.43C0.317393 137.548 0.317393 137.971 0.317393 144.007C0.317393 149.619 0.528989 150.572 2.11595 152.478L3.91451 154.596L20.8421 154.807L37.7698 155.019V163.278V171.432H21.0537H4.5493L2.43335 173.549C0.423191 175.667 0.317393 176.091 0.317393 181.809C0.317393 192.715 0.952179 193.033 22.0059 193.033H37.664V198.539C37.664 202.986 37.9814 204.468 39.3567 206.48C42.3191 210.928 44.5408 212.092 51.2061 212.41L57.1308 212.622V228.293C57.1308 249.259 57.554 249.788 68.7685 249.788C73.9526 249.788 74.5874 249.682 76.5975 247.67L78.7135 245.553V229.034V212.516H86.8599H95.1121L95.3237 229.458L95.5353 246.4L97.6513 248.2C99.5556 249.788 100.508 250 106.115 250C112.146 250 112.569 249.894 114.685 247.882L116.801 245.765V229.246V212.728H125.053H133.305V229.246V245.765L135.421 247.882C137.537 250 137.96 250 143.991 250C149.598 250 150.55 249.788 152.454 248.2L154.57 246.4L154.782 229.458L154.994 212.516H163.246H171.392V229.034V245.553L173.508 247.67C175.518 249.682 176.153 249.788 181.337 249.788C192.658 249.788 192.975 249.153 192.975 228.293V212.622L198.9 212.41C205.248 212.092 207.469 211.033 210.537 206.904C211.701 205.316 212.23 203.41 212.442 198.856L212.653 192.927H228.311C249.259 192.927 249.788 192.503 249.788 181.279C249.788 176.091 249.683 175.455 247.672 173.443L245.556 171.326H229.052H212.548V163.172V154.913L229.475 154.701L246.403 154.49L248.201 152.372C249.788 150.466 250 149.513 250 143.901C250 137.865 249.894 137.442 247.884 135.324L245.768 133.206H229.264H212.759V125.159V116.9H229.264H245.768L247.884 114.782C250 112.664 250 112.241 250 106.205C250 100.593 249.788 99.64 248.201 97.734L246.403 95.6163L229.475 95.4045L212.548 95.1927V86.9335V78.7802H229.052H245.556L247.672 76.6624C249.683 74.5447 249.788 74.1211 249.788 68.4032C249.788 57.4968 249.154 57.1792 228.1 57.1792H212.442V51.673C212.442 47.2258 212.124 45.7433 210.749 43.6256C207.787 39.1783 204.719 37.6959 198.582 37.6959H193.081V21.9187C193.081 0.8471 192.763 0.211774 181.866 0.211774C176.153 0.211774 175.624 0.317662 173.614 2.32952L171.498 4.44727V20.9657V37.4841H163.352H155.099L154.888 20.5421L154.676 3.60017L152.56 1.80008C150.656 0.211774 149.704 0 144.096 0C138.066 0 137.643 0.105887 135.527 2.11775L133.411 4.23549V20.7539V37.2723H125.053H116.801V21.0716V4.55316L114.685 2.43541C112.569 0.317662 112.146 0.317662 106.115 0.317662C100.508 0.317662 99.5556 0.529437 97.6513 2.11775L95.5353 3.91783L95.3237 20.8598L95.1121 37.8018H86.8599H78.7135V21.0716V4.55316L76.5975 2.43541C74.4816 0.42355 74.0584 0.317662 68.1337 0.317662C64.6424 0.211775 61.2569 0.635324 60.5163 1.05887ZM119.657 86.8276C120.08 87.9924 125.899 103.875 132.565 122.194C139.336 140.512 144.943 156.078 145.154 156.713C145.472 157.984 144.52 158.09 133.834 158.09H122.196L120.609 152.901L118.917 147.607L107.279 147.819L95.6411 148.031L93.9484 152.901L92.2556 157.772L80.8294 157.984C70.1439 158.09 69.5091 158.09 70.0381 156.819C70.4613 155.654 95.2179 88.31 96.1701 85.6629C96.3817 85.0275 99.344 84.8158 107.702 84.8158H118.811L119.657 86.8276ZM172.768 121.241L172.556 157.772H161.342H150.127L149.915 121.241L149.81 84.8158H161.447H173.085L172.768 121.241Z" fill="white"/>
<path d="M104.317 120.182C102.624 125.688 101.143 130.559 101.143 130.983C101.143 131.618 103.259 131.83 107.914 131.83C113.098 131.83 114.685 131.618 114.367 130.877C114.261 130.453 112.78 125.476 111.193 120.076C109.501 114.676 108.019 110.229 107.808 110.229C107.596 110.229 106.009 114.676 104.317 120.182Z" fill="white"/>
</svg>
