<svg width="250" height="250" viewBox="0 0 250 250" fill="none" xmlns="http://www.w3.org/2000/svg">
<path d="M235.437 0L215.355 224.974L125.084 250L35.0611 225.009L15 0H235.437Z" fill="#264DE4"/>
<path d="M198.162 210.648L215.324 18.3978H125.219V230.871L198.162 210.648Z" fill="#2965F1"/>
<path d="M60.9897 101.85L63.4631 129.447H125.219V101.85H60.9897Z" fill="#EBEBEB"/>
<path d="M125.219 45.9945H125.123H56.0199L58.5285 73.5913H125.219V45.9945Z" fill="#EBEBEB"/>
<path d="M125.219 202.233V173.521L125.098 173.554L94.3633 165.255L92.3985 143.245H77.464H64.696L68.5623 186.576L125.092 202.269L125.219 202.233Z" fill="#EBEBEB"/>
<path d="M159.105 129.447L155.902 165.237L125.123 173.545V202.255L181.697 186.576L182.112 181.913L188.597 109.261L189.271 101.85L194.253 45.9945H125.123V73.5913H164.009L161.498 101.85H125.123V129.447H159.105Z" fill="white"/>
</svg>
