<svg width="250" height="250" viewBox="0 0 250 250" fill="none" xmlns="http://www.w3.org/2000/svg">
<g clip-path="url(#clip0_1_321)">
<path d="M1.62695 145.63V117.807H36.3652V116.18H1.62695V90.7972H38.5615V89.1703H0V147.257H38.8867V145.63H1.62695ZM70.2085 105.441L55.8091 124.396L41.7344 105.441H39.6191L54.8325 125.617L38.1543 147.256H40.1069L55.8081 126.836L71.5908 147.256H73.6245L56.8657 125.616L72.1602 105.44H70.208L70.2085 105.441ZM78.5064 161.575V135.542H78.6689C79.6455 139.339 81.5708 142.39 84.4453 144.695C87.3198 146.999 90.9805 148.152 95.4277 148.152C98.3022 148.152 100.852 147.569 103.075 146.403C105.299 145.237 107.156 143.651 108.648 141.644C110.139 139.637 111.278 137.305 112.065 134.647C112.851 131.99 113.245 129.197 113.245 126.268C113.245 123.122 112.837 120.221 112.024 117.563C111.21 114.906 110.031 112.6 108.485 110.648C106.939 108.696 105.068 107.177 102.872 106.093C100.675 105.008 98.1938 104.465 95.4277 104.465C93.3125 104.465 91.3467 104.777 89.5298 105.401C87.7129 106.025 86.0996 106.906 84.6895 108.045C83.271 109.193 82.0364 110.551 81.0283 112.072C79.998 113.618 79.2114 115.312 78.6689 117.157H78.5064V105.441H76.8794V161.575H78.5064ZM95.4277 146.606C90.3301 146.606 86.2349 144.857 83.1436 141.359C80.0522 137.861 78.5064 132.83 78.5064 126.267C78.5064 123.556 78.8862 120.979 79.6455 118.539C80.4048 116.098 81.5029 113.956 82.9399 112.112C84.3774 110.268 86.1538 108.804 88.2686 107.719C90.3838 106.634 92.7705 106.092 95.4277 106.092C98.1397 106.092 100.513 106.634 102.546 107.719C104.58 108.804 106.262 110.282 107.59 112.153C108.919 114.024 109.922 116.166 110.601 118.579C111.278 120.993 111.617 123.556 111.617 126.267C111.617 128.708 111.306 131.136 110.682 133.549C110.058 135.962 109.095 138.132 107.793 140.057C106.492 141.982 104.825 143.555 102.791 144.776C100.756 145.996 98.3022 146.606 95.4277 146.606ZM122.193 147.257V123.583C122.193 121.305 122.519 119.081 123.17 116.912C123.82 114.743 124.824 112.83 126.18 111.177C127.536 109.522 129.257 108.221 131.346 107.271C133.434 106.322 135.915 105.929 138.79 106.092V104.465C136.294 104.411 134.112 104.681 132.241 105.278C130.369 105.875 128.756 106.688 127.4 107.719C126.044 108.749 124.959 109.956 124.146 111.339C123.333 112.72 122.73 114.214 122.356 115.773H122.193V105.441H120.566V147.257L122.193 147.257ZM140.823 126.674H175.805C175.914 123.8 175.629 121.034 174.951 118.376C174.273 115.719 173.188 113.359 171.697 111.299C170.206 109.238 168.28 107.583 165.921 106.336C163.562 105.088 160.755 104.465 157.501 104.465C155.168 104.465 152.891 104.953 150.667 105.93C148.443 106.906 146.491 108.329 144.81 110.2C143.128 112.071 141.772 114.363 140.742 117.075C139.712 119.786 139.196 122.878 139.196 126.349C139.196 129.44 139.549 132.328 140.254 135.013C140.959 137.698 142.043 140.03 143.508 142.01C144.973 143.989 146.857 145.521 149.162 146.606C151.467 147.691 154.247 148.206 157.501 148.152C162.273 148.152 166.287 146.809 169.541 144.125C172.795 141.44 174.721 137.657 175.317 132.776H173.69C172.985 137.386 171.182 140.844 168.28 143.148C165.378 145.453 161.731 146.606 157.338 146.606C154.355 146.606 151.833 146.091 149.772 145.06C147.711 144.03 146.03 142.619 144.728 140.83C143.427 139.04 142.464 136.938 141.84 134.525C141.216 132.112 140.877 129.494 140.823 126.674ZM174.178 125.047H140.824C140.986 122.119 141.528 119.488 142.45 117.156C143.373 114.824 144.579 112.83 146.071 111.177C147.562 109.522 149.298 108.262 151.277 107.393C153.257 106.526 155.386 106.092 157.664 106.092C160.375 106.092 162.761 106.594 164.823 107.597C166.883 108.6 168.605 109.97 169.989 111.705C171.372 113.441 172.416 115.461 173.121 117.766C173.826 120.071 174.178 122.498 174.178 125.047ZM209.567 117.807H211.194C211.194 113.142 209.838 109.753 207.127 107.638C204.415 105.522 200.727 104.465 196.063 104.465C193.459 104.465 191.263 104.79 189.473 105.441C187.683 106.092 186.219 106.932 185.08 107.963C183.941 108.993 183.127 110.132 182.639 111.38C182.151 112.627 181.907 113.821 181.907 114.959C181.907 117.237 182.313 119.054 183.127 120.41C183.941 121.766 185.215 122.824 186.951 123.583C188.144 124.125 189.5 124.613 191.019 125.048C192.537 125.481 194.3 125.942 196.307 126.43C198.096 126.865 199.859 127.298 201.595 127.732C203.33 128.166 204.862 128.749 206.191 129.481C207.52 130.213 208.604 131.149 209.445 132.288C210.286 133.427 210.706 134.918 210.706 136.762C210.706 138.552 210.286 140.071 209.445 141.318C208.612 142.559 207.514 143.601 206.232 144.369C204.93 145.155 203.479 145.724 201.879 146.077C200.279 146.43 198.72 146.606 197.202 146.606C192.266 146.606 188.483 145.508 185.853 143.311C183.222 141.115 181.907 137.657 181.907 132.938H180.28C180.28 138.2 181.704 142.05 184.551 144.491C187.398 146.931 191.615 148.152 197.202 148.152C198.991 148.152 200.794 147.948 202.612 147.541C204.428 147.135 206.056 146.471 207.493 145.548C208.917 144.639 210.114 143.414 210.991 141.969C211.886 140.504 212.334 138.715 212.334 136.599C212.334 134.593 211.94 132.966 211.154 131.718C210.367 130.471 209.337 129.44 208.062 128.627C206.788 127.813 205.351 127.176 203.75 126.715C202.141 126.252 200.528 125.804 198.91 125.372C196.918 124.85 194.925 124.335 192.93 123.827C191.222 123.393 189.636 122.878 188.171 122.281C186.761 121.684 185.636 120.83 184.795 119.719C183.954 118.607 183.534 117.02 183.534 114.959C183.534 114.58 183.643 113.902 183.859 112.926C184.076 111.949 184.592 110.959 185.405 109.956C186.219 108.953 187.466 108.058 189.147 107.271C190.829 106.485 193.134 106.092 196.063 106.092C198.069 106.092 199.899 106.309 201.554 106.743C203.208 107.177 204.632 107.868 205.825 108.817C207.018 109.766 207.94 110.973 208.591 112.437C209.242 113.902 209.567 115.692 209.567 117.807ZM247.234 117.807H248.861C248.861 113.142 247.505 109.753 244.793 107.638C242.082 105.522 238.394 104.465 233.729 104.465C231.126 104.465 228.929 104.79 227.14 105.441C225.35 106.092 223.885 106.932 222.747 107.963C221.607 108.993 220.794 110.132 220.306 111.38C219.817 112.627 219.574 113.821 219.574 114.959C219.574 117.237 219.98 119.054 220.794 120.41C221.607 121.766 222.882 122.824 224.618 123.583C225.811 124.125 227.166 124.613 228.685 125.048C230.204 125.481 231.966 125.942 233.973 126.43C235.763 126.865 237.526 127.298 239.261 127.732C240.997 128.166 242.529 128.749 243.858 129.481C245.187 130.213 246.271 131.149 247.112 132.288C247.953 133.427 248.373 134.918 248.373 136.762C248.373 138.552 247.953 140.071 247.112 141.318C246.278 142.559 245.181 143.601 243.899 144.369C242.597 145.155 241.146 145.724 239.546 146.077C237.946 146.43 236.387 146.606 234.868 146.606C229.933 146.606 226.15 145.508 223.52 143.311C220.889 141.115 219.574 137.657 219.574 132.938H217.947C217.947 138.2 219.37 142.05 222.218 144.491C225.065 146.931 229.282 148.152 234.868 148.152C236.658 148.152 238.461 147.948 240.278 147.541C242.095 147.135 243.722 146.471 245.16 145.548C246.584 144.639 247.781 143.414 248.658 141.969C249.553 140.504 250 138.715 250 136.599C250 134.593 249.607 132.966 248.82 131.718C248.034 130.471 247.004 129.44 245.729 128.627C244.455 127.813 243.017 127.176 241.417 126.715C239.808 126.252 238.195 125.804 236.577 125.372C234.585 124.85 232.592 124.335 230.597 123.827C228.889 123.393 227.302 122.878 225.838 122.281C224.428 121.684 223.302 120.83 222.462 119.719C221.621 118.607 221.201 117.02 221.201 114.959C221.201 114.58 221.309 113.902 221.526 112.926C221.743 111.949 222.259 110.959 223.072 109.956C223.885 108.953 225.133 108.058 226.814 107.271C228.496 106.485 230.8 106.092 233.729 106.092C235.736 106.092 237.566 106.309 239.221 106.743C240.875 107.177 242.298 107.868 243.492 108.817C244.685 109.766 245.607 110.973 246.258 112.437C246.909 113.902 247.234 115.692 247.234 117.807H247.234Z" fill="white"/>
</g>
<defs>
<clipPath id="clip0_1_321">
<rect width="250" height="72.8" fill="white" transform="translate(0 89.1472)"/>
</clipPath>
</defs>
</svg>
