<svg width="250" height="250" viewBox="0 0 250 250" fill="none" xmlns="http://www.w3.org/2000/svg">
<path d="M146.85 98.1996L127.525 116.175L109.6 79.9996L118.875 59.1996C121.225 55.0496 125.05 54.9996 127.375 59.1996L146.85 98.1996Z" fill="#F9A01B"/>
<path d="M127.525 116.175L55.275 183.375L109.6 80L127.525 116.175Z" fill="#F58020"/>
<path d="M168.025 70.6751C171.475 67.3751 175.05 68.5001 175.95 73.1751L194.725 182.45L132.425 219.875C130.25 221.1 124.45 221.575 124.45 221.575C124.45 221.575 119.175 220.925 117.15 219.825L55.275 183.375L168.025 70.6751Z" fill="#FFCB2A"/>
<path d="M109.6 79.9998L55.275 183.375L79.475 32.2748C80.375 27.5998 83.05 27.1248 85.425 31.2748L109.6 79.9998Z" fill="#F9A01B"/>
</svg>
