<svg width="250" height="250" viewBox="0 0 250 250" fill="none" xmlns="http://www.w3.org/2000/svg">
<path d="M245.286 113.865L136.128 4.71501C129.847 -1.57167 119.652 -1.57167 113.363 4.71501L90.6975 27.3838L119.448 56.1356C126.132 53.8788 133.793 55.3919 139.118 60.7185C144.471 66.0782 145.973 73.8049 143.66 80.5114L171.371 108.223C178.075 105.913 185.81 107.405 191.163 112.768C198.647 120.25 198.647 132.375 191.163 139.859C183.678 147.345 171.554 147.345 164.064 139.859C158.437 134.227 157.045 125.958 159.895 119.024L134.052 93.18L134.05 161.188C135.875 162.092 137.597 163.297 139.117 164.811C146.599 172.293 146.599 184.415 139.117 191.909C131.633 199.39 119.504 199.39 112.028 191.909C104.545 184.415 104.545 172.293 112.028 164.811C113.877 162.965 116.017 161.568 118.3 160.631V91.9908C116.016 91.0582 113.878 89.6713 112.026 87.8104C106.358 82.1465 104.993 73.8273 107.9 66.8667L79.5575 38.5187L4.71631 113.361C-1.5721 119.652 -1.5721 129.848 4.71631 136.135L113.869 245.285C120.153 251.572 130.344 251.572 136.637 245.285L245.285 136.65C251.572 130.361 251.572 120.162 245.285 113.874" fill="#F05133"/>
</svg>
