<svg width="250" height="250" viewBox="0 0 250 250" fill="none" xmlns="http://www.w3.org/2000/svg">
<path fill-rule="evenodd" clip-rule="evenodd" d="M125 0C55.9375 0 0 55.9375 0 125C0 180.312 35.7812 227.031 85.4687 243.594C91.7187 244.688 94.0625 240.938 94.0625 237.656C94.0625 234.688 93.9063 224.844 93.9063 214.375C62.5 220.156 54.375 206.719 51.875 199.687C50.4687 196.094 44.375 185 39.0625 182.031C34.6875 179.687 28.4375 173.906 38.9063 173.75C48.75 173.594 55.7813 182.812 58.125 186.562C69.375 205.469 87.3438 200.156 94.5313 196.875C95.625 188.75 98.9062 183.281 102.5 180.156C74.6875 177.031 45.625 166.25 45.625 118.437C45.625 104.844 50.4688 93.5937 58.4375 84.8437C57.1875 81.7187 52.8125 68.9062 59.6875 51.7187C59.6875 51.7187 70.1563 48.4375 94.0625 64.5313C104.062 61.7188 114.688 60.3125 125.313 60.3125C135.938 60.3125 146.563 61.7188 156.563 64.5313C180.469 48.2813 190.938 51.7187 190.938 51.7187C197.813 68.9062 193.438 81.7187 192.188 84.8437C200.156 93.5937 205 104.687 205 118.437C205 166.406 175.781 177.031 147.969 180.156C152.5 184.062 156.406 191.563 156.406 203.281C156.406 220 156.25 233.438 156.25 237.656C156.25 240.938 158.594 244.844 164.844 243.594C214.219 227.031 250 180.156 250 125C250 55.9375 194.063 0 125 0Z" fill="white"/>
</svg>
