<svg width="250" height="250" viewBox="0 0 250 250" fill="none" xmlns="http://www.w3.org/2000/svg">
<path d="M215.543 0H35.5669C29.6075 0.0147389 23.8972 2.39243 19.6885 6.61159C15.4797 10.8307 13.1162 16.5469 13.1162 22.5063V227.494C13.1162 233.453 15.4797 239.169 19.6885 243.388C23.8972 247.608 29.6075 249.985 35.5669 250H215.543C221.512 250 227.237 247.629 231.457 243.408C235.678 239.187 238.049 233.463 238.049 227.494V22.5063C238.049 16.5373 235.678 10.8127 231.457 6.59194C227.237 2.37119 221.512 0 215.543 0ZM225.544 227.494C225.539 230.145 224.484 232.685 222.609 234.56C220.735 236.434 218.194 237.49 215.543 237.494H35.5669C32.916 237.49 30.3751 236.434 28.5007 234.56C26.6262 232.685 25.571 230.145 25.5661 227.494V22.5063C25.571 19.8555 26.6262 17.3146 28.5007 15.4401C30.3751 13.5657 32.916 12.5105 35.5669 12.5056H215.543C218.194 12.5105 220.735 13.5657 222.609 15.4401C224.484 17.3146 225.539 19.8555 225.544 22.5063V227.494Z" fill="#430098"/>
<path d="M69.3728 212.502L97.501 187.509L69.3728 162.498V212.502Z" fill="#430098"/>
<path d="M171.013 111.177C165.966 106.075 156.726 100.045 141.326 100.045C124.368 100.045 106.927 104.46 94.4581 108.524V37.4982H69.3728V145.911L87.0364 137.914C87.3148 137.784 115.833 124.926 141.252 124.926C153.943 124.926 156.763 131.939 156.875 137.765V212.428H181.886V137.506C181.714 127.672 177.83 118.266 171.013 111.177Z" fill="#430098"/>
<path d="M138.116 78.132H163.109C173.443 66.8749 179.995 52.6665 181.849 37.4982H156.856C153.855 52.316 147.438 66.2293 138.116 78.132Z" fill="#430098"/>
</svg>
