<svg width="250" height="250" viewBox="0 0 250 250" fill="none" xmlns="http://www.w3.org/2000/svg">
<g clip-path="url(#clip0_1_130)">
<path d="M250 0H0V250H250V0Z" fill="#F7DF1E"/>
<path d="M167.936 195.313C172.972 203.536 179.524 209.579 191.111 209.579C200.845 209.579 207.063 204.714 207.063 197.992C207.063 189.937 200.674 187.083 189.96 182.397L184.087 179.877C167.135 172.655 155.873 163.607 155.873 144.48C155.873 126.861 169.297 113.448 190.278 113.448C205.214 113.448 215.952 118.647 223.69 132.258L205.397 144.004C201.369 136.782 197.024 133.937 190.278 133.937C183.397 133.937 179.036 138.302 179.036 144.004C179.036 151.052 183.401 153.905 193.48 158.27L199.353 160.786C219.313 169.345 230.583 178.071 230.583 197.69C230.583 218.841 213.968 230.429 191.655 230.429C169.837 230.429 155.742 220.032 148.845 206.405L167.936 195.313ZM84.9482 197.349C88.6387 203.897 91.9958 209.433 100.067 209.433C107.786 209.433 112.655 206.413 112.655 194.671V114.79H136.147V194.988C136.147 219.313 121.885 230.385 101.067 230.385C82.2577 230.385 71.3649 220.651 65.8252 208.927L84.9482 197.349Z" fill="black"/>
</g>
<defs>
<clipPath id="clip0_1_130">
<rect width="250" height="250" fill="white"/>
</clipPath>
</defs>
</svg>
