<svg width="250" height="250" viewBox="0 0 250 250" fill="none" xmlns="http://www.w3.org/2000/svg">
<path d="M230.261 191.803C216.652 191.457 206.115 192.827 197.272 196.568C194.719 197.588 190.659 197.587 190.304 200.814C191.683 202.18 191.842 204.383 193.039 206.267C195.078 209.667 198.633 214.241 201.878 216.626C205.442 219.357 209.019 222.06 212.769 224.441C219.383 228.532 226.879 230.913 233.324 234.991C237.079 237.362 240.811 240.43 244.57 242.983C246.418 244.344 247.601 246.551 250 247.403V246.884C248.798 245.354 248.457 243.142 247.278 241.44L242.172 236.516C237.238 229.889 231.107 224.104 224.494 219.352C219.05 215.602 207.144 210.504 204.937 204.233L204.591 203.887C208.332 203.536 212.77 202.18 216.324 201.138C222.109 199.613 227.384 199.959 233.319 198.434C236.05 197.751 238.758 196.896 241.498 196.054V194.52C238.421 191.457 236.227 187.388 232.991 184.493C224.335 177.015 214.795 169.701 204.937 163.579C199.657 160.17 192.866 157.977 187.245 155.077C185.22 154.053 181.806 153.548 180.614 151.846C177.564 148.105 175.849 143.18 173.637 138.752C168.721 129.407 163.947 119.039 159.705 109.158C156.637 102.531 154.771 95.9137 151.03 89.783C133.507 60.8816 114.477 43.3769 85.2302 26.1954C78.9447 22.618 71.4667 21.0932 63.479 19.2181L50.7214 18.5445C47.9997 17.352 45.2734 14.1159 42.8976 12.5867C33.194 6.46959 8.21136 -6.78864 1.07476 10.7161C-3.52215 21.7805 7.87454 32.6584 11.7887 38.2702C14.6789 42.1662 18.4247 46.5993 20.4455 51.0233C21.6425 53.9134 21.9794 56.981 23.1764 60.035C25.8981 67.5175 28.4423 75.842 32.0197 82.8239C33.8858 86.3831 35.9203 90.1243 38.3052 93.3467C39.6706 95.231 42.0465 96.0639 42.5653 99.1361C40.194 102.522 40.0074 107.634 38.6466 111.885C32.5295 131.096 34.919 154.895 43.5894 169.014C46.302 173.265 52.7741 182.622 61.4309 179.036C69.0955 175.977 67.3978 166.287 69.6007 157.79C70.1059 155.737 69.7736 154.39 70.7931 153.043V153.375C73.1644 158.131 75.5584 162.715 77.7568 167.485C83.0318 175.809 92.2166 184.484 99.8675 190.251C103.941 193.327 107.168 198.589 112.27 200.469V199.959H111.933C110.9 198.434 109.389 197.751 108.033 196.568C104.965 193.505 101.57 189.764 99.1893 186.368C92.0618 176.842 85.7536 166.297 80.1554 155.414C77.4154 150.135 75.0532 144.363 72.8458 139.093C71.8172 137.058 71.8172 133.991 70.1104 132.967C67.5525 136.703 63.8249 139.939 61.9588 144.518C58.7228 151.841 58.386 160.849 57.1844 170.215L56.5154 170.543C51.0992 169.182 49.2149 163.579 47.1577 158.823C42.0647 146.744 41.209 127.355 45.6284 113.418C46.8118 109.855 51.9321 98.6309 49.8885 95.2356C48.8645 91.9813 45.46 90.1289 43.594 87.5665C41.4002 84.3441 38.997 80.266 37.4678 76.6886C33.3897 67.1716 31.337 56.626 26.9449 47.1136C24.8922 42.6806 21.3285 38.0927 18.4429 34.0101C15.2023 29.4223 11.6385 26.1908 9.0761 20.7519C8.22954 18.8813 7.04165 15.8227 8.40252 13.7882C8.73477 12.4228 9.42656 11.9131 10.7829 11.5717C12.9858 9.71019 19.2804 12.0769 21.4878 13.101C27.7915 15.6498 33.062 18.0301 38.3234 21.5984C40.7038 23.3052 43.2572 26.5367 46.3111 27.3878H49.8885C55.3184 28.5712 61.44 27.7155 66.5512 29.2539C75.5584 32.1486 83.7191 36.3951 91.0378 40.9783C113.308 55.1013 131.673 75.1685 144.071 99.1361C146.105 103.041 146.97 106.619 148.827 110.692C152.409 119.03 156.837 127.532 160.392 135.693C163.965 143.681 167.369 151.837 172.471 158.473C175.016 162.041 185.238 163.912 189.821 165.782C193.212 167.307 198.492 168.663 201.55 170.534C207.335 174.098 213.097 178.189 218.536 182.108C221.244 184.147 229.755 188.398 230.261 191.803ZM56.8249 44.046C54.4775 44.0216 52.1373 44.3093 49.8658 44.9016V45.243H50.1935C51.5635 47.9602 53.9438 49.8445 55.6415 52.2157C57.0115 54.942 58.1994 57.6456 59.5421 60.3673L59.8698 60.0305C62.2683 58.3328 63.4608 55.6111 63.4608 51.5285C62.4277 50.3269 62.2683 49.1526 61.4081 47.9602C60.4068 46.2579 58.1994 45.4114 56.8249 44.046Z" fill="#00758F"/>
</svg>
