<svg width="250" height="251" viewBox="0 0 250 251" fill="none" xmlns="http://www.w3.org/2000/svg">
<path d="M184.061 182.974C185.651 169.727 185.175 167.784 195.041 169.93L197.545 170.15C205.131 170.495 215.055 168.93 220.885 166.221C233.435 160.397 240.877 150.673 228.502 153.228C200.274 159.052 198.333 149.492 198.333 149.492C228.14 105.259 240.601 49.1088 229.845 35.3644C200.51 -2.12521 149.732 15.6028 148.882 16.0631L148.612 16.113C143.034 14.9556 136.793 14.2641 129.781 14.1507C117.007 13.9407 107.314 17.5 99.9612 23.0778C99.9612 23.0778 9.37541 -14.2485 13.5896 70.0195C14.4859 87.9456 39.2807 205.664 68.8532 170.107C79.6618 157.106 90.1073 146.112 90.1073 146.112C95.2941 149.559 101.504 151.317 108.017 150.685L108.52 150.256C108.363 151.87 108.432 153.449 108.722 155.319C101.105 163.832 103.343 165.327 88.1121 168.462C72.7026 171.639 81.7557 177.294 87.6648 178.772C94.8305 180.564 111.407 183.103 122.611 167.42L122.165 169.209C125.153 171.601 124.951 186.396 125.375 196.968C125.799 207.539 126.507 217.404 128.662 223.221C130.816 229.036 133.358 244.017 153.376 239.727C170.105 236.141 182.896 230.981 184.061 182.974Z" fill="black" stroke="black" stroke-width="20.9905"/>
<path d="M228.505 153.227C200.274 159.051 198.333 149.491 198.333 149.491C228.141 105.255 240.601 49.1038 229.848 35.3611C200.513 -2.12632 149.732 15.6028 148.885 16.0631L148.612 16.1119C143.035 14.9539 136.793 14.2641 129.777 14.1496C117.003 13.9402 107.314 17.4989 99.9613 23.0756C99.9613 23.0756 9.37377 -14.249 13.5869 70.0183C14.4831 87.9456 39.2774 205.664 68.851 170.107C79.6602 157.106 90.1039 146.112 90.1039 146.112C95.2913 149.559 101.501 151.317 108.011 150.685L108.517 150.256C108.36 151.87 108.432 153.449 108.72 155.319C101.101 163.832 103.34 165.327 88.1099 168.462C72.6993 171.639 81.7524 177.294 87.6632 178.772C94.8289 180.564 111.407 183.103 122.608 167.42L122.162 169.209C125.147 171.601 127.243 184.764 126.892 196.696C126.54 208.629 126.306 216.822 128.658 223.221C131.01 229.62 133.354 244.017 153.375 239.727C170.105 236.141 178.774 226.849 179.98 211.35C180.836 200.33 182.772 201.959 182.895 192.108L184.448 187.444C186.24 172.507 184.733 167.688 195.04 169.929L197.544 170.149C205.13 170.494 215.059 168.929 220.886 166.22C233.434 160.396 240.876 150.671 228.504 153.227H228.505Z" fill="#336791"/>
<path d="M123.821 161.789C123.043 189.583 124.016 217.571 126.735 224.373C129.456 231.175 135.278 244.405 155.301 240.115C172.029 236.528 178.115 229.587 180.757 214.266C182.702 202.993 186.452 171.688 186.933 165.273" stroke="white" stroke-width="6.99684" stroke-linecap="round" stroke-linejoin="round"/>
<path d="M99.8214 22.4548C99.8214 22.4548 9.17219 -14.601 13.3864 69.6664C14.2827 87.5936 39.0786 205.316 68.6517 169.758C79.4586 156.754 89.2322 146.556 89.2322 146.556" stroke="white" stroke-width="6.99684" stroke-linecap="round" stroke-linejoin="round"/>
<path d="M148.785 15.6915C145.648 16.6755 199.21 -3.89222 229.65 35.0103C240.403 48.7535 227.942 104.905 198.136 149.142" stroke="white" stroke-width="6.99684" stroke-linecap="round" stroke-linejoin="round"/>
<path d="M198.135 149.142C198.135 149.142 200.078 158.704 228.309 152.876C240.678 150.321 233.234 160.046 220.689 165.873C210.393 170.653 187.311 171.877 186.934 165.273C185.963 148.235 199.082 153.411 198.135 149.142ZM198.135 149.142C197.279 145.297 191.413 141.523 187.532 132.113C184.144 123.899 141.065 60.9104 199.479 70.2653C201.619 69.8224 184.244 14.694 129.577 13.7976C74.9222 12.9012 76.7153 81.0218 76.7153 81.0218" stroke="white" stroke-width="6.99684" stroke-linecap="round" stroke-linejoin="bevel"/>
<path d="M108.52 154.969C100.901 163.482 103.142 164.976 87.9105 168.113C72.4999 171.29 81.5541 176.944 87.4632 178.422C94.6289 180.215 111.207 182.754 122.408 167.067C125.819 162.291 122.388 154.67 117.702 152.727C115.438 151.789 112.411 150.614 108.52 154.969Z" stroke="white" stroke-width="6.99684" stroke-linecap="round" stroke-linejoin="round"/>
<path d="M108.021 154.82C107.254 149.815 109.666 143.859 112.251 136.891C116.135 126.436 125.099 115.979 117.929 82.8141C112.584 58.1 76.7371 77.6708 76.7147 81.0218C76.6928 84.3717 78.336 98.0072 76.1158 113.886C73.2188 134.605 89.2978 152.129 107.813 150.336" stroke="white" stroke-width="6.99684" stroke-linecap="round" stroke-linejoin="round"/>
<path d="M99.4918 80.5194C99.3302 81.6639 101.587 84.718 104.529 85.1261C107.467 85.5359 109.981 83.1492 110.14 82.0058C110.3 80.8613 108.046 79.6005 105.102 79.1908C102.163 78.7805 99.6478 79.3777 99.4924 80.5194H99.4918Z" fill="white" stroke="white" stroke-width="2.33226"/>
<path d="M188.964 78.186C189.124 79.3306 186.87 82.3847 183.927 82.7927C180.987 83.2025 178.473 80.8158 178.312 79.6724C178.156 78.5279 180.411 77.2672 183.351 76.8574C186.291 76.4476 188.805 77.0443 188.964 78.1866V78.186Z" fill="white" stroke="white" stroke-width="1.16613"/>
<path d="M199.479 70.2653C199.963 79.243 197.546 85.3579 197.241 94.9149C196.79 108.806 203.863 124.706 193.205 140.626" stroke="white" stroke-width="6.99684" stroke-linecap="round" stroke-linejoin="round"/>
</svg>
