<svg width="250" height="250" viewBox="0 0 250 250" fill="none" xmlns="http://www.w3.org/2000/svg">
<g clip-path="url(#clip0_1_214)">
<path d="M123.93 0.0705872C60.6232 0.0705872 64.576 27.6343 64.576 27.6343L64.6463 56.1912H125.059V64.7647H40.6515C40.6515 64.7647 0.141602 60.152 0.141602 124.284C0.141602 188.419 35.4996 186.144 35.4996 186.144H56.6011V156.383C56.6011 156.383 55.4635 120.883 91.3947 120.883H151.313C151.313 120.883 184.977 121.429 184.977 88.2176V33.3039C184.977 33.3039 190.09 0.0705872 123.93 0.0705872ZM90.6184 19.2745C92.046 19.2732 93.4598 19.5546 94.779 20.1025C96.0982 20.6504 97.2968 21.4541 98.3062 22.4676C99.3157 23.4811 100.116 24.6845 100.662 26.009C101.208 27.3335 101.488 28.753 101.487 30.1863C101.488 31.6196 101.208 33.0391 100.662 34.3636C100.116 35.688 99.3157 36.8914 98.3062 37.9049C97.2968 38.9184 96.0982 39.7221 94.779 40.2701C93.4598 40.818 92.046 41.0993 90.6184 41.098C89.1909 41.0993 87.777 40.818 86.4579 40.2701C85.1387 39.7221 83.9401 38.9184 82.9307 37.9049C81.9212 36.8914 81.1207 35.688 80.575 34.3636C80.0293 33.0391 79.749 31.6196 79.7503 30.1863C79.749 28.753 80.0293 27.3335 80.575 26.009C81.1207 24.6845 81.9212 23.4811 82.9307 22.4676C83.9401 21.4541 85.1387 20.6504 86.4579 20.1025C87.777 19.5546 89.1909 19.2732 90.6184 19.2745Z" fill="url(#paint0_linear_1_214)"/>
<path d="M125.727 249.143C189.034 249.143 185.081 221.579 185.081 221.579L185.011 193.024H124.598V184.45H209.005C209.005 184.45 249.515 189.063 249.515 124.928C249.515 60.7951 214.157 63.0696 214.157 63.0696H193.055V92.8294C193.055 92.8294 194.193 128.329 158.261 128.329H98.3433C98.3433 128.329 64.6795 127.783 64.6795 160.996V215.911C64.6795 215.911 59.5676 249.143 125.726 249.143H125.727ZM159.039 229.941C157.611 229.942 156.197 229.661 154.878 229.113C153.559 228.565 152.36 227.762 151.351 226.748C150.342 225.735 149.541 224.531 148.995 223.207C148.45 221.882 148.169 220.463 148.171 219.029C148.169 217.596 148.449 216.176 148.995 214.852C149.541 213.527 150.341 212.324 151.351 211.31C152.36 210.296 153.559 209.493 154.878 208.945C156.197 208.397 157.611 208.115 159.039 208.117C160.466 208.115 161.88 208.397 163.199 208.945C164.518 209.493 165.717 210.296 166.727 211.31C167.736 212.323 168.536 213.527 169.082 214.851C169.628 216.176 169.908 217.595 169.907 219.028C169.908 220.462 169.628 221.881 169.082 223.206C168.536 224.53 167.736 225.734 166.727 226.747C165.717 227.761 164.518 228.564 163.199 229.112C161.88 229.66 160.466 229.942 159.039 229.941Z" fill="url(#paint1_linear_1_214)"/>
</g>
<defs>
<linearGradient id="paint0_linear_1_214" x1="2396.61" y1="2240.33" x2="14803.8" y2="14474.6" gradientUnits="userSpaceOnUse">
<stop stop-color="#387EB8"/>
<stop offset="1" stop-color="#366994"/>
</linearGradient>
<linearGradient id="paint1_linear_1_214" x1="3601.87" y1="3892.47" x2="16923.3" y2="16435.3" gradientUnits="userSpaceOnUse">
<stop stop-color="#FFE052"/>
<stop offset="1" stop-color="#FFC331"/>
</linearGradient>
<clipPath id="clip0_1_214">
<rect width="250" height="250" fill="white"/>
</clipPath>
</defs>
</svg>
