<svg width="250" height="250" viewBox="0 0 250 250" fill="none" xmlns="http://www.w3.org/2000/svg">
<path fill-rule="evenodd" clip-rule="evenodd" d="M209.128 37.4618L214.398 44.3995C215.781 46.2305 215.435 48.8551 213.604 50.2385L208.009 54.4906C209.026 57.1965 209.677 60.0855 209.942 63.0356L216.31 63.9104C218.589 64.2156 220.176 66.3315 219.87 68.6101L218.69 77.2567C218.385 79.5354 216.269 81.1427 213.991 80.8171L207.033 79.8609C205.792 82.5668 204.205 85.0489 202.333 87.2665L206.239 92.3935C207.623 94.2245 207.256 96.849 205.425 98.2325L198.488 103.502C196.657 104.885 194.032 104.519 192.649 102.708L188.397 97.1135C185.67 98.1308 182.802 98.7818 179.831 99.0463L178.956 105.414C178.651 107.693 176.535 109.28 174.257 108.975L165.61 107.795C163.331 107.49 161.745 105.374 162.05 103.095L163.006 96.137C160.32 94.8959 157.818 93.309 155.6 91.4576L150.473 95.3435C148.642 96.727 146.018 96.3811 144.634 94.55L139.365 87.6124C137.982 85.7813 138.327 83.1568 140.158 81.7733L145.753 77.5212C144.736 74.795 144.085 71.9263 143.821 68.9763L137.453 68.1015C135.174 67.7963 133.567 65.6804 133.892 63.4018L135.072 54.7551C135.398 52.4765 137.493 50.8896 139.772 51.1947L146.73 52.151C147.971 49.4654 149.558 46.963 151.409 44.7454L147.523 39.6184C146.14 37.8077 146.486 35.1832 148.317 33.7997L155.254 28.5303C157.086 27.1469 159.71 27.4927 161.093 29.3238L165.346 34.9187C168.051 33.9014 170.94 33.2504 173.891 32.9859L174.765 26.6179C175.071 24.3393 177.186 22.732 179.465 23.0372L188.112 24.2172C190.39 24.5224 191.998 26.6383 191.672 28.9169L190.716 35.8749C193.422 37.116 195.904 38.7029 198.142 40.5746L203.269 36.6887C205.1 35.2849 207.724 35.6308 209.128 37.4618ZM60.3651 159.552V125.983H77.6584C80.8729 125.983 83.3144 126.248 85.003 126.817C86.6916 127.367 88.0751 128.384 89.0924 129.869C90.1299 131.375 90.6589 133.185 90.6589 135.322C90.6589 137.173 90.252 138.801 89.4586 140.143C88.6651 141.506 87.5665 142.605 86.183 143.439C85.3082 143.968 84.0875 144.416 82.5412 144.762C83.7823 145.189 84.6775 145.575 85.2268 146.003C85.6133 146.288 86.1627 146.878 86.8747 147.773C87.5868 148.668 88.0751 149.38 88.3192 149.868L93.3648 159.573H81.6461L76.1122 149.339C75.4001 148.017 74.7898 147.142 74.2405 146.755C73.4877 146.247 72.6332 145.982 71.6973 145.982H70.7818V159.573H60.3651V159.552ZM96.9455 218.004H77.5771L74.7898 227.118H57.3337L78.1467 171.8H96.8642L117.596 227.118H99.6921L96.9455 218.004ZM93.3241 206.021L87.2816 186.123L81.2188 206.021H93.3241ZM121.624 171.8H150.066C156.272 171.8 160.91 173.265 163.982 176.215C167.055 179.165 168.601 183.377 168.601 188.809C168.601 194.404 166.912 198.778 163.555 201.931C160.198 205.085 155.051 206.651 148.154 206.651H138.775V227.118H121.624V171.8ZM138.775 195.441H142.986C146.303 195.441 148.642 194.872 149.985 193.712C151.328 192.573 151.999 191.087 151.999 189.317C151.999 187.588 151.409 186.103 150.25 184.902C149.09 183.702 146.893 183.092 143.678 183.092H138.775V195.441ZM175.518 171.8H192.669V227.118H175.518V171.8ZM70.7818 139.614H75.156C75.6239 139.614 76.5395 139.452 77.9026 139.146C78.5943 139.004 79.164 138.658 79.5912 138.088C80.0388 137.519 80.2422 136.868 80.2422 136.135C80.2422 135.057 79.8964 134.203 79.2047 133.633C78.5129 133.043 77.2312 132.758 75.3391 132.758H70.7818V139.614ZM95.3586 125.983H123.13V133.145H105.775V138.495H121.868V145.331H105.775V151.943H123.638V159.532H95.3586V125.983ZM126.1 148.444L135.947 147.834C136.15 149.441 136.598 150.641 137.249 151.476C138.327 152.818 139.853 153.51 141.827 153.51C143.292 153.51 144.451 153.164 145.245 152.472C146.038 151.781 146.445 150.967 146.445 150.051C146.445 149.177 146.058 148.403 145.306 147.712C144.553 147.02 142.783 146.389 139.996 145.759C135.459 144.741 132.224 143.378 130.271 141.69C128.318 140.001 127.341 137.844 127.341 135.22C127.341 133.49 127.85 131.863 128.847 130.337C129.843 128.811 131.349 127.59 133.363 126.716C135.377 125.841 138.124 125.413 141.623 125.413C145.916 125.413 149.171 126.207 151.43 127.814C153.668 129.421 155.01 131.944 155.438 135.444L145.692 136.034C145.428 134.508 144.878 133.389 144.065 132.717C143.231 132.026 142.071 131.68 140.626 131.68C139.426 131.68 138.51 131.944 137.9 132.453C137.29 132.962 136.985 133.592 136.985 134.325C136.985 134.854 137.249 135.322 137.737 135.769C138.226 136.196 139.365 136.624 141.196 137.01C145.733 137.987 148.988 138.984 150.941 139.981C152.894 140.977 154.339 142.219 155.214 143.704C156.109 145.169 156.557 146.837 156.557 148.668C156.557 150.824 155.967 152.798 154.766 154.609C153.586 156.419 151.918 157.803 149.782 158.739C147.645 159.675 144.96 160.143 141.705 160.143C136.008 160.143 132.041 159.044 129.843 156.847C127.646 154.609 126.405 151.821 126.1 148.444ZM158.062 125.983H189.617V134.284H179.038V159.552H168.662V134.284H158.062V125.983ZM123.15 46.3119C119.427 46.0271 115.663 46.0678 111.94 46.434C100.486 47.5326 89.3568 51.7034 80.1609 58.8445C69.5204 67.0842 61.4434 79.4133 58.3306 95.7504L57.3541 100.857L52.2678 101.752C47.2833 102.627 42.8277 103.827 38.9214 105.353C35.1373 106.818 31.76 108.629 28.81 110.765C26.4499 112.474 24.4154 114.386 22.6861 116.462C17.3353 122.87 14.8532 130.907 14.9143 139.045C14.9753 147.305 17.6609 155.646 22.6251 162.503C24.4765 165.046 26.6127 167.385 29.0541 169.42C31.5362 171.475 34.3235 173.184 37.4566 174.465C39.2266 175.198 41.1187 175.808 43.0922 176.296V191.535C39.0232 190.802 35.2797 189.704 31.7803 188.259C27.162 186.347 23.0726 183.885 19.4716 180.874C16.0536 178.026 13.0629 174.791 10.5197 171.271C3.74485 161.913 0.0827359 150.479 0.00135567 139.085C-0.0800245 127.57 3.5007 116.116 11.2318 106.838C13.7343 103.827 16.6843 101.06 20.0616 98.6191C23.9882 95.7707 28.4844 93.37 33.5707 91.3966C37.07 90.0334 40.8135 88.8941 44.7605 87.9786C49.2364 70.197 58.7782 56.5048 71.0463 47.0037C82.5209 38.1129 96.3352 32.9249 110.556 31.5618C118.023 30.8497 125.591 31.1752 132.997 32.5587C132.834 33.2301 132.692 33.9014 132.61 34.5932L132.59 34.7152C132.448 35.8749 132.387 37.0346 132.448 38.2146C130.881 38.8249 129.416 39.6591 128.094 40.6763L128.033 40.717C126.059 42.2022 124.391 44.1147 123.15 46.3119ZM230.796 85.3744C231.935 86.412 233.034 87.4903 234.112 88.65C236.289 90.9897 238.344 93.6345 240.276 96.5845C246.787 106.594 250.123 119.961 249.981 133.043C249.839 145.881 246.38 158.657 239.3 168.057C234.682 174.181 228.761 179.185 221.661 183.153C216.798 185.879 211.325 188.137 205.364 189.968V174.201C208.579 173.001 211.57 171.658 214.316 170.132C219.667 167.141 224.041 163.499 227.317 159.125C232.403 152.35 234.905 142.768 235.007 132.941C235.129 122.626 232.606 112.271 227.703 104.743C226.299 102.566 224.753 100.613 223.126 98.8632C222.495 98.1918 221.864 97.5611 221.213 96.9508C221.315 95.9335 221.356 94.8959 221.294 93.8583C222.861 93.248 224.326 92.4138 225.648 91.3966L225.709 91.3559C227.805 89.7486 229.555 87.7141 230.796 85.3744ZM179.201 49.0382C188.58 50.3199 195.131 58.9665 193.849 68.3456C192.567 77.7247 183.921 84.2961 174.542 83.0144C165.162 81.7327 158.591 73.086 159.893 63.7069C161.195 54.3279 169.822 47.7564 179.201 49.0382Z" fill="white"/>
</svg>
