<svg width="399" height="147" viewBox="0 0 399 147" fill="none" xmlns="http://www.w3.org/2000/svg">
<path d="M65.7549 82.2695C61.7856 79.4459 57.2607 77.5109 52.485 76.5956L39.1062 73.3613C35.6223 72.6851 32.2293 71.5994 28.9972 70.127C27.8459 69.5564 26.8832 68.6627 26.2257 67.5539C25.5679 66.4451 25.2437 65.168 25.2915 63.878C25.2585 62.4722 25.5843 61.0817 26.2381 59.8388C26.8914 58.5959 27.8508 57.5426 29.0247 56.7788C32.0385 54.9398 35.5314 54.0521 39.0516 54.23C42.3027 54.1259 45.5322 54.7922 48.4797 56.1761C50.3169 57.1202 51.8592 58.5566 52.9362 60.3269C54.0132 62.0972 54.5832 64.1324 54.5832 66.2078H70.1961C70.2579 62.5508 69.4668 58.9304 67.8861 55.6361C66.3057 52.3424 63.9798 49.4669 61.0953 47.2403C55.0317 42.7688 47.6568 40.4633 40.1418 40.6895C30.3597 40.6895 22.921 42.992 17.88 47.6243C15.4265 49.7969 13.4749 52.4831 12.1617 55.4942C10.8483 58.5056 10.2056 61.769 10.278 65.0567C10.278 72.731 12.8937 78.3683 18.1255 81.968C23.3615 84.9263 29.0686 86.9483 34.992 87.9431L43.1664 89.7797C46.8651 90.4523 50.4396 91.6913 53.7657 93.4526C54.7842 94.0472 55.6263 94.9043 56.2059 95.9348C56.7855 96.9659 57.0813 98.1341 57.0627 99.3182C57.1263 101.381 56.4888 103.405 55.2555 105.054C54.0219 106.703 52.266 107.881 50.2779 108.391C47.262 109.325 44.1132 109.751 40.9593 109.651C34.5558 109.651 30.0603 108.062 27.3351 104.827C25.6561 102.477 24.6477 99.7094 24.4197 96.8237H9.02449C8.85625 100.486 9.55669 104.137 11.0681 107.473C12.5795 110.809 14.8586 113.736 17.7166 116.011C23.5116 120.67 31.4679 123 41.586 123C51.477 123 59.1606 120.643 64.5831 115.901C67.1886 113.752 69.2775 111.038 70.6932 107.962C72.1089 104.887 72.8145 101.529 72.7575 98.1395C72.9126 95.1266 72.3594 92.1197 71.1429 89.3621C69.9261 86.6048 68.0802 84.1748 65.7549 82.2695Z" fill="white"/>
<path d="M98.1495 42.9375H81.7461V121.411H98.1495V42.9375Z" fill="white"/>
<path d="M171.774 54.5319C168.564 49.8684 163.922 46.3923 158.559 44.637C154.659 43.4754 150.61 42.9027 146.543 42.9375H113.082V121.055H146.543C151.804 121.328 157.035 120.106 161.638 117.527C166.24 114.948 170.027 111.117 172.565 106.473C176.921 98.4021 179.065 89.3112 178.777 80.1321C178.75 75.7791 178.256 71.4417 177.306 67.1949C176.318 62.6454 174.438 58.3404 171.774 54.5319ZM162.374 82.2153C162.21 92.6034 159.24 101.731 152.074 105.596C149.027 107.097 145.654 107.804 142.265 107.651H129.458V56.7246C129.458 56.7246 143.409 56.7246 144.063 56.7246C147.643 56.5272 151.214 57.2436 154.445 58.8075C161.339 62.8641 162.32 72.1287 162.374 82.188C162.401 81.8589 162.401 82.5168 162.374 82.2153Z" fill="white"/>
<path d="M190.221 42.9375V56.7246V75.2805V89.0676V107.624V121.411H206.624H243.763V107.624H206.624V89.0676H243.763V75.2805H206.624V56.7246H243.763V42.9375H206.624H190.221Z" fill="white"/>
<path d="M392.263 65.9886C392.227 59.8674 389.785 54.0087 385.474 49.6905C381.16 45.3723 375.325 42.9447 369.241 42.9375H334.717V121.411H351.064V92.6307H369.241C375.325 92.6235 381.16 90.1962 385.474 85.878C389.785 81.5595 392.227 75.7008 392.263 69.5793V65.9886ZM377.443 69.6618C377.443 72.0966 376.477 74.4324 374.767 76.1544C373.054 77.8761 370.732 78.8439 368.314 78.8439H351.064V56.7246H368.314C370.732 56.7246 373.054 57.6918 374.767 59.4138C376.477 61.1358 377.443 63.4713 377.443 65.9064V69.6618Z" fill="white"/>
<path d="M301.883 30H318.23V42.8553C318.23 43.8219 317.849 44.7489 317.168 45.4326C316.49 46.1166 315.566 46.5003 314.606 46.5003H301.826V30.0549L301.883 30Z" fill="#DC4097"/>
<path d="M255.941 95.3166C255.941 98.7456 256.613 102.141 257.918 105.309C259.224 108.476 261.137 111.354 263.549 113.778C265.96 116.201 268.823 118.122 271.973 119.432C275.124 120.742 278.5 121.414 281.909 121.411H318.367V58.9995H302.017V107.542H287.058C285.568 107.552 284.081 107.414 282.617 107.13C280.754 106.637 279.015 105.752 277.517 104.532C276.018 103.314 274.794 101.789 273.925 100.059C272.82 96.5901 272.331 92.9532 272.481 89.3139V42.9375H256.132L255.941 95.3166Z" fill="white"/>
</svg>
