<svg width="399" height="147" viewBox="0 0 133 49" fill="none" xmlns="http://www.w3.org/2000/svg">
    <path
        d="M21.9183 27.4232C20.5952 26.482 19.0869 25.837 17.495 25.5319L13.0354 24.4538C11.8741 24.2284 10.7431 23.8665 9.66572 23.3757C9.28198 23.1855 8.96107 22.8876 8.7419 22.518C8.52262 22.1484 8.41458 21.7227 8.43049 21.2927C8.4195 20.8241 8.52811 20.3606 8.74602 19.9463C8.96381 19.532 9.28358 19.1809 9.67488 18.9263C10.6795 18.3133 11.8438 18.0174 13.0172 18.0767C14.1009 18.042 15.1774 18.2641 16.1599 18.7254C16.7723 19.0401 17.2864 19.5189 17.6454 20.109C18.0044 20.6991 18.1944 21.3775 18.1944 22.0693H23.3987C23.4193 20.8503 23.1556 19.6435 22.6287 18.5454C22.1019 17.4475 21.3266 16.489 20.3651 15.7468C18.3439 14.2563 15.8856 13.4878 13.3806 13.5632C10.1199 13.5632 7.64034 14.3307 5.96001 15.8748C5.14216 16.599 4.49164 17.4944 4.05388 18.4981C3.61611 19.5019 3.40187 20.5897 3.42601 21.6856C3.42601 24.2437 4.29788 26.1228 6.04184 27.3227C7.78717 28.3088 9.68953 28.9828 11.664 29.3144L14.3888 29.9266C15.6217 30.1508 16.8132 30.5638 17.9219 31.1509C18.2614 31.3491 18.5421 31.6348 18.7353 31.9783C18.9285 32.322 19.0271 32.7114 19.0209 33.1061C19.0421 33.7938 18.8296 34.4682 18.4185 35.018C18.0073 35.5678 17.422 35.9602 16.7593 36.1303C15.754 36.4417 14.7044 36.5837 13.6531 36.5505C11.5186 36.5505 10.0201 36.0206 9.11168 34.9425C8.55203 34.159 8.2159 33.2365 8.1399 32.2746H3.00816C2.95208 33.4955 3.18556 34.7122 3.68936 35.8242C4.19316 36.9363 4.95287 37.9119 5.90553 38.6702C7.83719 40.2234 10.4893 41 13.862 41C17.159 41 19.7202 40.2142 21.5277 38.6336C22.3962 37.9174 23.0925 37.0127 23.5644 35.9874C24.0363 34.9622 24.2715 33.8429 24.2525 32.7132C24.3042 31.7089 24.1198 30.7066 23.7143 29.7874C23.3087 28.8683 22.6934 28.0583 21.9183 27.4232Z"
        fill="#393D40" />
    <path d="M32.7168 14.3125H27.249V40.4702H32.7168V14.3125Z" fill="#393D40" />
    <path
        d="M57.2584 18.1773C56.1882 16.6228 54.6408 15.4641 52.8533 14.879C51.5534 14.4918 50.2035 14.3009 48.8479 14.3125H37.6943V40.3515H48.8479C50.6016 40.4428 52.3454 40.0353 53.8796 39.1757C55.4136 38.3159 56.676 37.0389 57.5218 35.4909C58.9739 32.8007 59.6886 29.7704 59.5926 26.7107C59.5835 25.2597 59.419 23.8139 59.1022 22.3983C58.773 20.8818 58.1462 19.4468 57.2584 18.1773ZM54.1248 27.4051C54.0704 30.8678 53.0804 33.9103 50.6916 35.1985C49.676 35.6989 48.5517 35.9345 47.4219 35.8837H43.1531V18.9082C43.1531 18.9082 47.8034 18.9082 48.0213 18.9082C49.2146 18.8424 50.4051 19.0812 51.4818 19.6025C53.7798 20.9547 54.1068 24.0429 54.1248 27.396C54.134 27.2863 54.134 27.5056 54.1248 27.4051Z"
        fill="#393D40" />
    <path
        d="M63.4067 14.3125V18.9082V25.0935V29.6892V35.8745V40.4702H68.8745H81.2542V35.8745H68.8745V29.6892H81.2542V25.0935H68.8745V18.9082H81.2542V14.3125H68.8745H63.4067Z"
        fill="#393D40" />
    <path
        d="M130.754 21.9962C130.742 19.9558 129.928 18.0029 128.491 16.5635C127.053 15.1241 125.108 14.3149 123.08 14.3125H111.572V40.4702H117.021V30.8769H123.08C125.108 30.8745 127.053 30.0654 128.491 28.626C129.928 27.1865 130.742 25.2336 130.754 23.1931V21.9962ZM125.814 23.2206C125.814 24.0322 125.492 24.8108 124.922 25.3848C124.351 25.9587 123.577 26.2813 122.771 26.2813H117.021V18.9082H122.771C123.577 18.9082 124.351 19.2306 124.922 19.8046C125.492 20.3786 125.814 21.1571 125.814 21.9688V23.2206Z"
        fill="#393D40" />
    <path
        d="M100.628 10H106.077V14.2851C106.077 14.6073 105.95 14.9163 105.723 15.1442C105.497 15.3722 105.189 15.5001 104.869 15.5001H100.609V10.0183L100.628 10Z"
        fill="#DC4097" />
    <path
        d="M85.3135 31.7722C85.3135 32.9152 85.5374 34.047 85.9725 35.1029C86.4076 36.1588 87.0453 37.118 87.8492 37.9259C88.6531 38.7337 89.6073 39.3741 90.6575 39.8107C91.7076 40.2472 92.833 40.4713 93.9692 40.4702H106.122V19.6665H100.672V35.8472H95.6858C95.1891 35.8507 94.6932 35.8048 94.2053 35.7101C93.5842 35.5456 93.0047 35.2505 92.5053 34.8441C92.0058 34.4379 91.5977 33.9296 91.308 33.3529C90.9396 32.1967 90.7767 30.9844 90.8266 29.7713V14.3125H85.377L85.3135 31.7722Z"
        fill="#393D40" />
</svg>